<?xml version="1.0" encoding="utf-8"?>
<!-- Generator: Adobe Illustrator 25.0.1, SVG Export Plug-In . SVG Version: 6.00 Build 0)  -->
<svg version="1.1" id="Layer_1" xmlns="http://www.w3.org/2000/svg" xmlns:xlink="http://www.w3.org/1999/xlink" x="0px" y="0px"
	 viewBox="0 0 202.6 34.1" style="enable-background:new 0 0 202.6 34.1;" xml:space="preserve">
<style type="text/css">
	.st0{fill:#FFFFFF;}
</style>
<g>
	<g>
		<path class="st0" d="M117.6,3.2c-2-1.3-4.4-1.9-7.1-1.9c-2.8,0-5.1,0.6-7.1,1.9c-2.5,1.6-3.7,3.8-3.7,6.5v15.8
			c0,2.8,1.2,5,3.7,6.5c2,1.3,4.3,1.9,7.1,1.9c2.8,0,5.1-0.6,7.1-1.9c2.5-1.6,3.7-3.8,3.7-6.5V9.8C121.3,7,120.1,4.8,117.6,3.2z
			 M116.7,26c0,1.3-0.7,2.3-2.2,3c-1.2,0.6-2.5,0.9-4.1,0.9c-1.5,0-2.9-0.3-4.1-0.9c-1.5-0.7-2.2-1.7-2.2-3V9.3c0-1.3,0.7-2.3,2.2-3
			c1.2-0.6,2.5-0.9,4.1-0.9c1.5,0,2.9,0.3,4.1,0.9c1.5,0.7,2.2,1.7,2.2,3V26z"/>
		<path class="st0" d="M143.9,20.1c1.1-0.6,2-1.4,2.8-2.4c1.3-1.8,1.9-3.9,1.9-6.4c0-2.6-0.7-4.8-2.1-6.6c-1.6-2-3.6-3-6.2-3h-11.7
			v31.8h4.6V20.7h4.3c1.6,0,3.8,3,6.7,8.9l1.9,3.9h5.2l-3-6C146.5,24,145,21.6,143.9,20.1z M140.3,16.5h-7.1V5.9h7.1
			c1.3,0,2.3,0.6,3,1.8c0.5,0.9,0.8,2.1,0.8,3.6c0,1.6-0.4,2.9-1.1,3.9C142.3,16.1,141.4,16.5,140.3,16.5z"/>
		<polygon class="st0" points="170.3,1.7 159.5,15 159.5,1.7 155,1.7 155,33.5 159.5,33.5 159.5,22.3 162.3,19 170.8,33.5 
			176.1,33.5 165.3,15.1 176.2,1.7 		"/>
		<path class="st0" d="M197.2,15.8c-1.4-0.8-3.8-1.2-7.1-1.3c-2.6-0.1-4.2-0.3-4.9-0.7c-0.9-0.5-1.3-1.7-1.2-3.6
			c0.1-2.5,1.5-3.9,4.3-4.4c1.6-0.3,3.1-0.1,4.7,0.4c1.3,0.5,2.2,1.3,2.8,2.3l4.3-1.6c-0.9-2-2.5-3.6-5-4.7
			c-2.4-0.9-4.9-1.2-7.5-0.8c-2.4,0.4-4.4,1.4-5.9,2.9c-1.5,1.5-2.2,3.4-2.3,5.7c-0.1,3.8,1.1,6.4,3.7,7.8c1.4,0.7,3.7,1.2,6.9,1.3
			c2.7,0.1,4.4,0.3,5.2,0.8c1,0.6,1.5,2,1.4,4.3c0,2.2-0.9,3.7-2.5,4.6c-1,0.5-2.2,0.8-3.5,0.9c-1.8,0.1-3.4-0.2-4.9-0.9
			c-1.4-0.7-2.2-1.6-2.3-2.8l-4.6,0.5c0.3,2.6,1.8,4.6,4.5,6c2,1.1,4.2,1.6,6.7,1.6c0.3,0,0.5,0,0.8,0c2.8-0.1,5.1-0.9,6.9-2.4
			c2.2-1.8,3.4-4.2,3.4-7.4C201.1,20.1,199.8,17.3,197.2,15.8z"/>
		<path class="st0" d="M85.2,23.2c-1-4.1-3-11.3-5.9-21.4h-4c-3,10.2-4.9,17.3-5.9,21.4c-0.4-1.8-1.1-4.3-1.9-7.3l-2.3,8.2l2.7,9.4
			h2.9C74,22.4,76.1,14.5,77.2,10c1.1,4.5,3.3,12.4,6.5,23.5h2.9l9.3-31.8h-4.8C88.1,11.9,86.2,19.1,85.2,23.2z"/>
	</g>
	<g>
		<path class="st0" d="M12.6,1.8c1.1,3.5,2.7,8.7,4.9,15.7c2.4,7.7,4.1,13.1,5.1,16h-2.4l-3.6-11.3H6.9L3.3,33.5H0.9
			c0.8-2.6,2.5-8,5.1-16.2c2.2-6.9,3.8-12.1,4.9-15.5H12.6z M15.9,19.9L11.7,6.7L7.6,19.9H15.9z"/>
		<path class="st0" d="M35.7,1.7c2.8,0,5.1,0.6,7.1,1.9C45,5,46.1,7,46.1,9.5v1.1h-2.2V9.5c0-1.7-0.8-3-2.4-4.1
			c-1.5-1-3.5-1.5-5.7-1.5c-2.2,0-4,0.5-5.5,1.4c-1.7,1-2.6,2.4-2.6,4.2v16.7c0,1.8,0.9,3.2,2.6,4.2c1.5,0.9,3.4,1.4,5.5,1.4
			c2.2,0,4-0.5,5.5-1.4c1.7-1,2.6-2.4,2.6-4.2V25h2.2v1.1c0,2.5-1.1,4.5-3.3,5.9c-1.9,1.3-4.3,1.9-7.1,1.9c-2.8,0-5.1-0.6-7.1-1.9
			c-2.2-1.4-3.3-3.4-3.3-5.9V9.5c0-2.5,1.1-4.5,3.3-5.9C30.6,2.3,33,1.7,35.7,1.7z"/>
		<g>
			<polygon class="st0" points="53.5,31.2 53.5,18.8 62.3,18.8 62.9,16.5 53.5,16.5 53.5,4.1 66.4,4.1 67,1.8 51.3,1.8 51.3,33.5 
				58.2,33.5 58.8,31.2 			"/>
		</g>
	</g>
</g>
</svg>
