<?xml version="1.0" encoding="utf-8"?>
<!-- Generator: Adobe Illustrator 25.0.1, SVG Export Plug-In . SVG Version: 6.00 Build 0)  -->
<svg version="1.1" xmlns="http://www.w3.org/2000/svg" xmlns:xlink="http://www.w3.org/1999/xlink" x="0px" y="0px"
	 viewBox="0 0 855 450" style="enable-background:new 0 0 855 450;" xml:space="preserve">
<style type="text/css">
	.st0{display:none;}
	.st1{display:inline;}
	.st2{stroke:#9EC0E8;stroke-width:25;stroke-miterlimit:10;}
	.st3{fill:url(#SVGID_1_);}
	.st4{fill:url(#SVGID_2_);}
	.st5{fill:#6298C4;}
	.st6{fill:#CEE1F4;}
	.st7{display:inline;fill:#9EC0E8;}
	.st8{display:inline;fill:#6298C4;}
	.st9{fill:#191F28;}
	.st10{fill:#0D1014;}
	.st11{fill:#B7B7B7;}
	.st12{fill:#9B9B9B;}
	.st13{fill:#191919;}
	.st14{fill:#242C38;}
	.st15{fill:#0C0C0C;}
	.st16{fill:none;stroke:#4D4D4D;stroke-width:0.5;stroke-linecap:round;stroke-miterlimit:10;}
	.st17{fill:#E5A993;}
	.st18{fill:#FFC3B0;}
	.st19{fill:#E0AB8D;}
	.st20{fill:#CC8D76;}
	.st21{fill:#A57C6B;}
	.st22{fill:none;}
	.st23{display:inline;fill:#E0AB8D;}
	.st24{fill:#EAC3B0;}
	.st25{fill:#89664C;}
	.st26{fill:#705649;}
	.st27{fill:#684934;}
	.st28{fill:#A38469;}
	.st29{fill:#A57958;}
	.st30{fill:#1E1E1E;}
	.st31{fill:#BFD7E8;}
	.st32{fill:none;stroke:#000000;stroke-width:2;stroke-miterlimit:10;}
	.st33{fill:none;stroke:#000000;stroke-width:2;stroke-linecap:round;stroke-miterlimit:10;}
	.st34{display:inline;fill:#7995CC;}
</style>
<g id="Layer_16" class="st0">
	<g class="st1">
		<path class="st2" d="M655,440c0,0-13-26-25-48s-35-39-35-39s-10-9-11-12c-0.3-0.9-0.8-1.7-1.5-2.2c0.2-2.1-2.5-3.8-2.5-3.8
			s-1,0-1-2s-2-2-3-4s1-2-1-5c-1-1.5-2.2-2.5-3.2-3.1c-1.3-0.8-2.4-2-3.3-3.4c-1-1.7-2.4-3.9-3.5-5.5c-10.9-16.4-30-35-32-37
			s-4-6-9-9s-10-7-10-7s-5-5-8-6s-5-7-5-7s-7-1-11,0s-4,1-8,3s-6,1-6,1s-2.9-7.2-9.8-13c3.4,0,6.8,0,10.2-0.1c1.8,0,3.7-0.3,5.4-1.1
			c0.9-0.4,1.7-0.9,2.4-1.4l1.1-0.8c0.4-0.3,0.7-0.5,1.1-0.8c1.4-1.2,2.6-2.7,3.2-4.5c0.7-1.7,0.8-3.6,0.8-5.4
			c0-1.7-0.1-3.5,0.3-5.1c0.4-1.7,1.8-2.9,3.2-3.9c2.5-1.7,1.5-4.9,0.9-6c0.1-0.1,0.2-0.2,0.2-0.3c0.2-0.4,0.1-0.6,0.1-0.8l-0.1-0.4
			c0,0,0,0,0,0c0.1-0.3,0.7-0.7,1.1-1.2c0.4-0.5,0.5-1.2,0.4-1.7c0.2-0.6,0.5-1.8,1.4-3.5c0.9-1.7-0.5-4.3-0.9-4.9
			c2-0.2,4-0.7,5.9-1.5c1-0.4,1.9-0.8,2.9-1.6c0.8-0.7,1.6-1.5,2.2-2.4c0.6-0.9,1.2-1.9,1.5-3.2c0.1-0.3,0.1-0.7,0.1-1.2
			c0-0.2-0.1-0.5-0.1-0.7c-0.1-0.2-0.1-0.3-0.2-0.5c-0.3-0.6-0.5-1-0.8-1.4c-1.1-1.7-2.2-3.3-3.3-5c-0.4-0.6-0.9-1.2-1.3-1.9
			c6.2-8.4,6.2-21.8,6.2-21.8s0-4-3-4c-2.6,0-4.8,0.4-6.8,1.2c0.1-0.4,0.1-0.8,0.1-1.3l1.9-0.3c0,0-0.7,0.1-1.9,0.3
			c0-0.2,0-0.4,0-0.7c0-0.9,0-1.9-0.2-2.8c-0.1-0.3-0.1-0.6-0.2-0.9c-0.1-2-0.7-7.8-0.9-9.2c-0.3-1.6-0.5-3.2-0.6-4.8
			c-0.1-0.6-0.2-2-0.4-3.3c-0.1-1.1-0.3-2.1-0.6-3.1c-0.3-1.1-0.6-2.1-1-3.1c-0.6-1.5-1.2-3.1-1.9-4.5c-0.7-1.4-1.6-2.9-2.9-4
			c-0.2-0.2-0.6-0.6-0.6-0.6l0,0c1.8-0.3,3-0.7,3-0.7c9-4,4-19,4-19s1,6-1,7c0,0,1.9-4.8-0.8-10.6c0.4,1,1.4,3.8-0.2,4.6
			c0,0-1.9-14.3-13.2-18.7c1.3,0.6,3.8,2.1,5.2,5.7c0,0-21-15-41-23s-48,3-48,3s-1-1,1-2c0,0-2,0-3,3c0,0-2,0,0-2c0,0-3,1-5,4
			c0,0-19,11-25,22s-6,22-5,28s-1,14,0,20s3,8,3,8s0,10,2,13s2,12,3,14s0,10,0,10s0,4,2,5c0,0-1-3,0-4c0,0,0.4,5.8,2,9
			c1,2,1.1,4.6,1.2,5.6c0,0.3,0.2,0.4,0.4,0.5c-0.2,0.7-0.4,1.4-0.6,2.1l-0.5,1.6c-0.1,0.2-0.1,0.5-0.2,0.7
			c-2.1-0.1-3.6,0.4-7.3,0.4c-5,0-7,4-7,4s-3,4-6,6s-5,4-5,4s-3,5-11,5s-13,5-16,6s-11-1-15-1s-7,1-10,3s-8,2-12,0s-10,2-10,2
			s-9,10-15,14s-14,26-15,30s-4,14-6,17s-1,7-2,10s-3,11-3,11s-3,7-2,11s0,1-1,5s-1,7,0,8s1,5,1,5s-1,0-1,5c0,3.2,1.7,4.4,2.8,4.8
			c3.3,26,9.5,66.7,13.2,82.2c4,17,6,24,8,29s0,11,3,18s7,4,10,10s15,25,21,28s55.2-34.2,46-48c-3.6-5.3-11-12.8-16.5-18H478
			c0,0,5-11,13-26s-8-11,1-17s7-19,13-23s-1-5,5-8s6-8,6-8s12-2,13,1c0.8,2.4,2.8,2.9,3.6,3c4.6,6.9,33.3,48.8,57.4,68
			c10,8,10,11,10,11l42,38c0,0,9-10,14-23S655,440,655,440z M497,195L497,195L497,195L497,195z"/>
		<path class="st2" d="M482.8,75.3c-0.5-0.2-0.8-0.3-0.8-0.3C482.3,75.1,482.5,75.2,482.8,75.3z"/>
		<path class="st2" d="M496.2,89.4c-0.1-0.2-0.2-0.4-0.2-0.4C496.1,89.1,496.1,89.3,496.2,89.4z"/>
	</g>
</g>
<g id="Layer_39" class="st0">
	<g class="st1">
		<g>
			<g>
				<linearGradient id="SVGID_1_" gradientUnits="userSpaceOnUse" x1="225.7617" y1="448.3726" x2="594.8024" y2="235.3068">
					<stop  offset="2.947721e-06" style="stop-color:#3F82E7"/>
					<stop  offset="0.137" style="stop-color:#4586E8"/>
					<stop  offset="0.3202" style="stop-color:#5693EB"/>
					<stop  offset="0.5293" style="stop-color:#72A8F0"/>
					<stop  offset="0.7578" style="stop-color:#99C4F6"/>
					<stop  offset="1" style="stop-color:#CAE9FF"/>
				</linearGradient>
				<path class="st3" d="M289.8,529.7c-2.3,0-4.4-0.5-6.4-1.5c-10.6-5.3-23.4-27.8-26.1-32.7c-2.7-1.3-7.6-4.1-10.8-11.6
					c-2.6-6-2.8-11.3-2.9-15.1c0-1.1-0.1-2.7-0.2-3.2c-2.4-6-4.5-13.8-8.5-30.7c-3.8-16.1-9.6-54.7-12.8-78.8
					c-2.3-3-3.6-6.8-3.6-11.1c0-2.2,0.2-4.1,0.5-5.8c-2.5-6-0.8-12.6-0.2-15.2c0.2-0.6,0.3-1.2,0.5-1.8c-0.5-5.8,1.4-11.9,2.7-15.1
					c0.6-2.3,2-7.7,2.9-10.6c0-0.3,0.1-0.8,0.1-1.2c0.2-2.8,0.4-7.5,3.4-12.1c1-1.8,3.2-8.7,4.4-13.3c0.1-0.3,8.6-29.6,20.2-37.4
					c3.2-2.1,9.3-8.3,12.6-12l1-1.2l1.3-0.9c2-1.3,12.5-7.8,22.5-2.8c0.1,0.1,0.3,0.1,0.5,0.1c4.9-3,10-4.5,15.9-4.5
					c2.4,0,4.9,0.4,7.6,0.7c1.1,0.2,2.8,0.4,3.9,0.5c0,0,0.1-0.1,0.1-0.1c3.6-2.1,10.2-6.1,19.3-6.1c0.5,0,0.8,0,1-0.1l0.1-0.2
					l1.1-1.1c0.5-0.5,3.1-3,6.9-5.6c0.5-0.4,1.7-1.6,2.6-2.6c2-3.2,5.5-6.5,10.2-8.2c-2.1-3.9-2.3-8.1-2.3-9.7v-0.8l0.1-0.8
					c0.2-1.7,0.4-3.8,0.4-5c-0.7-2.1-6-3.3-6.3-5.9c-0.2-1.3-0.4-3.5-0.7-4.6c-2-3.5-3.1-8.7-3.4-15.3c-1.1-2.3-2.2-5.5-2.9-9.6
					c-0.7-4.5-0.4-9-0.1-12.9c0.2-2.6,0.4-5.5,0.1-7.1c-0.9-5.6-1.2-17.4,7.4-33c6.4-11.7,26.4-22.8,32.6-26.6
					c3.7-4.1,12.3-7.4,13.2-7.6c7.7-1.7,24.8-4.8,34.2-4.3c6.5,0.3,13.3,1.3,19.6,3.8c0.1,0,0.2,0.1,0.3,0.1h1l-0.5,0.2
					c13,5.3,26,10.1,34.2,15.3L489,66c11.3,4.4,15,11.6,17.4,18.6l1.1-0.5c0.8,1.7,1.4,3.5,1.8,5.1l0.5-0.1
					c1.9,5.6,2.6,11.7,1.7,17.3l-1.6,5.8c-0.6,1.5-1.4,2.9-2.3,4.3c0.1,0.4,0.3,0.7,0.4,1.1c0.5,1.3,0.9,2.6,1.3,4
					c0.4,1.5,0.8,3.2,1,5l0.1,1.2c0.1,1.1,0.3,2.1,0.3,2.5c0.1,1.4,0.3,2.7,0.5,4c0.1,0.9,0.3,2.4,0.5,4.1
					c6.2,2.1,10.6,8.3,10.6,15.7c0,1.4-0.1,11.4-4.1,21.1c0.2,0.3,0.4,0.5,0.5,0.8c0.5,0.8,0.9,1.5,1.4,2.4l0.3,0.6
					c0.1,0.3,0.4,0.9,0.7,1.7l0.2,0.7c0.2,0.7,0.5,1.8,0.6,3.1c0.1,1.8,0,3.2-0.2,4.1l-0.1,0.6c-0.8,3.6-2.3,6.1-3.5,7.7l-0.1,0.2
					c-1.2,1.6-2.5,3.1-4.1,4.5l-0.5,0.4c-1.4,1.1-2.7,1.9-3.8,2.4c-0.2,0.4-0.4,0.9-0.6,1.3c-0.1,0.1-0.1,0.2-0.2,0.4
					c-0.2,1.2-0.5,2.4-0.9,3.6c0.4,4.7-1.1,9.7-5.1,13.3c0.1,3.5-0.4,6.8-1.6,9.9c-0.1,0.2-0.2,0.5-0.3,0.7c0.7,0.1,1.2,0.2,1.6,0.2
					l7.8,1.1l2.3,7.3c0,0.1,0.1,0.3,0.2,0.5c3.6,2,7.1,5,9.2,7.1c1.2,1,4.8,3.6,8.2,5.7c5.6,3.3,8.7,7.4,10.6,9.9
					c0.3,0.4,0.7,0.9,0.8,1.1l0.4,0.4c8.2,8.2,23.5,24,33.1,38.5c0.9,1.4,2.1,3.3,3.5,5.6c2.6,1.7,4.8,3.9,6.5,6.4
					c1.5,2.2,2.4,4.4,2.8,6.7c1,1.2,1.7,2.4,2.3,3.8c1.5,1.6,2.9,3.6,3.7,5.9c0.4,0.7,0.8,1.5,1.2,2.3c1.3,1.6,4.8,5.1,7.6,7.7
					c3.8,2.9,25.7,20.2,38,42.7c12,21.9,25.1,48.1,25.2,48.4l0.3,0.7c0.8,1.9,7.8,19.2,1.2,36.4c-5.8,15-15.9,26.4-16.4,26.9
					l-8.4,9.3l-55.4-50.1v-2c-0.9-1-2.6-2.5-5.3-4.7c-22.9-18.3-49-54.9-57.8-67.7c-0.4-0.2-0.8-0.5-1.2-0.8c-1,1.2-2.3,2.4-3.7,3.4
					c-0.8,3-2.8,6.1-6.5,8.8c-0.3,0.9-0.8,2.3-1.1,3.4c-1.2,4.1-2.9,9.7-6.9,14.7c1.3,4.7,0.9,10.7-3.1,18.2
					c-7.7,14.4-12.6,25.2-12.7,25.3l-3.3,7.3l-139.8,0c3.8,6.9,4.6,18.3-10.1,35c-6.5,7.3-15.4,15.2-24.5,21.5
					C302.2,526.6,295.4,529.7,289.8,529.7z M295.2,506.2C295.2,506.2,295.2,506.2,295.2,506.2C295.2,506.2,295.2,506.2,295.2,506.2z
					 M222.1,343.8C222.2,343.8,222.2,343.8,222.1,343.8C222.2,343.8,222.2,343.8,222.1,343.8z M595.8,337
					C595.9,337,595.9,337,595.8,337C595.9,337,595.9,337,595.8,337z M228.6,283.1C228.6,283.1,228.6,283.1,228.6,283.1
					C228.6,283.1,228.6,283.1,228.6,283.1z M358.8,174.6C358.8,174.6,358.8,174.6,358.8,174.6C358.8,174.6,358.8,174.6,358.8,174.6z
					 M351.6,162.9C351.6,162.9,351.6,162.9,351.6,162.9C351.6,162.9,351.6,162.9,351.6,162.9z"/>
			</g>
		</g>
		<g>
			<g>
				<linearGradient id="SVGID_2_" gradientUnits="userSpaceOnUse" x1="496.0708" y1="89.2057" x2="496.1068" y2="89.1849">
					<stop  offset="2.947721e-06" style="stop-color:#3F82E7"/>
					<stop  offset="0.137" style="stop-color:#4586E8"/>
					<stop  offset="0.3202" style="stop-color:#5693EB"/>
					<stop  offset="0.5293" style="stop-color:#72A8F0"/>
					<stop  offset="0.7578" style="stop-color:#99C4F6"/>
					<stop  offset="1" style="stop-color:#CAE9FF"/>
				</linearGradient>
				<path class="st4" d="M496.2,89.4c-0.1-0.2-0.2-0.4-0.2-0.4C496.1,89.1,496.1,89.3,496.2,89.4z"/>
			</g>
		</g>
	</g>
</g>
<g id="Layer_40" class="st0">
	<g class="st1">
		<path class="st5" d="M560,342l-55,9l-44,107l28.4-1.8c0-0.1,5-10.9,12.7-25.3c4-7.5,4.5-13.5,3.1-18.2c4-5,5.6-10.6,6.9-14.7
			c0.3-1.1,0.8-2.5,1.1-3.4c3.7-2.8,5.6-5.9,6.5-8.8c1.4-1.1,2.6-2.2,3.7-3.4c0.4,0.3,0.8,0.5,1.2,0.8c8.8,12.8,34.9,49.3,57.8,67.7
			c2.7,2.2,4.4,3.8,5.3,4.7L642,463L560,342z"/>
		<path class="st6" d="M647,467l4.3,31.4c0.4-0.5,10.6-11.9,16.4-26.9c6.6-17.2-0.4-34.5-1.2-36.4l-0.3-0.7
			C666,434.1,652.9,408,641,386c-12.3-22.5-34.2-39.8-38-42.7c-2.8-2.6-6.4-6.1-7.6-7.7c-0.3-0.8-0.7-1.6-1.2-2.3
			c-0.8-2.3-2.1-4.2-3.7-5.9c-0.5-1.3-1.3-2.6-2.3-3.8c-0.4-2.3-1.3-4.5-2.8-6.7c-1.7-2.6-3.9-4.7-6.5-6.4c-1.4-2.3-2.6-4.2-3.5-5.6
			c-9.6-14.4-24.9-30.3-33.1-38.5l-0.4-0.4c-0.2-0.2-0.5-0.7-0.8-1.1c-1.9-2.4-5.1-6.5-10.6-9.9c-3.4-2-6.9-4.7-8.2-5.7
			c-2.2-2.1-5.6-5.1-9.2-7.1c-0.1-0.2-0.1-0.3-0.2-0.5l-2.3-7.3l-7.8-1.1c-0.4-0.1-0.9-0.1-1.6-0.2c0.1-0.2,0.2-0.5,0.3-0.7
			c1.1-3,1.7-6.4,1.6-9.9c4-3.6,5.5-8.6,5.1-13.3c0.5-1.1,0.8-2.3,0.9-3.6c0-0.1,0.1-0.2,0.2-0.4c0.2-0.4,0.4-0.9,0.6-1.3
			c1.1-0.6,2.5-1.4,3.8-2.4l0.5-0.4c1.6-1.4,2.9-2.8,4.1-4.5l0.1-0.2c1.1-1.6,2.7-4.2,3.5-7.7l0.1-0.6c0.2-0.9,0.3-2.4,0.2-4.1
			c-0.1-1.3-0.4-2.4-0.6-3.1l-0.2-0.7c-0.3-0.8-0.6-1.4-0.7-1.7l-0.3-0.6c-0.4-0.8-0.9-1.6-1.4-2.4c-0.2-0.3-0.4-0.5-0.5-0.8
			c3.9-9.7,4.1-19.7,4.1-21.1c0-7.4-4.4-13.6-10.6-15.7c-0.2-1.7-0.4-3.2-0.5-4.1c-0.2-1.3-0.4-2.6-0.5-4c0-0.5-0.2-1.5-0.3-2.5
			l-0.1-1.2c-0.2-1.8-0.5-3.5-1-5c-0.4-1.4-0.8-2.8-1.3-4c-0.1-0.4-0.3-0.7-0.4-1.1c0.9-1.3,1.7-2.8,2.3-4.3l5.4,3.9l-3.9-9.7
			c0.9-5.6,0.1-11.7-1.7-17.3l-0.5,0.1c-0.4-1.6-1-3.3-1.8-5.1l-1.1,0.5c-2.5-6.9-7.8-16.6-19.2-21l-0.6,1.4
			c-8.2-5.3-21.2-13-34.2-18.3l0.5-0.2h-1c-0.1,0-0.2-0.1-0.3-0.1c-6.3-2.5-13-3.5-19.6-3.8c-9.4-0.5-22.6,2.6-30.2,4.3
			c-0.9,0.2-9.4,3.4-13.2,7.6c-6.2,3.8-13.3,19.9-19.6,31.6l112,212L647,467z"/>
	</g>
</g>
<g id="Layer_41" class="st0">
	<path class="st7" d="M381,190l-34.7,273.5c3.8,6.9,4.6,18.3-10.1,35c-6.5,7.3-15.4,15.2-24.5,21.5c-9.6,6.7-16.4,9.8-22,9.8"/>
	<path class="st8" d="M283.4,528.2c-10.6-5.3-23.4-27.8-26.1-32.7c-2.7-1.3-7.6-4.1-10.8-11.6c-2.6-6-2.8-11.3-2.9-15.1
		c0-1.1-0.1-2.7-0.2-3.2c-2.4-6-4.5-13.8-8.5-30.7c-3.8-16.1-9.6-54.7-12.8-78.8c-2.3-3-3.6-6.8-3.6-11.1c0-2.2,0.2-4.1,0.5-5.8
		c-2.5-6-0.8-12.6-0.2-15.2c0.2-0.6,0.3-1.2,0.5-1.8c-0.5-5.8,1.4-11.9,2.7-15.1c0.6-2.3,2-7.7,2.9-10.6c0-0.3,0.1-0.8,0.1-1.2
		c0.2-2.8,0.4-7.5,3.4-12.1c1-1.8,3.2-8.7,4.4-13.3c0.1-0.3,8.6-29.6,20.2-37.4c3.2-2.1,9.3-8.3,12.6-12l1-1.2l1.3-0.9
		c2-1.3,12.5-7.8,22.5-2.8c0.1,0.1,0.3,0.1,0.5,0.1c4.9-3,10-4.5,15.9-4.5c2.4,0,4.9,0.4,7.6,0.7c1.1,0.2,2.8,0.4,3.9,0.5
		c0,0,0.1-0.1,0.1-0.1c3.6-2.1,10.2-6.1,19.3-6.1c0.5,0,0.8,0,1-0.1l0.1-0.2l1.1-1.1c0.5-0.5,3.1-3,6.9-5.6c0.5-0.4,1.7-1.6,2.6-2.6
		c2-3.2,5.5-6.5,10.2-8.2c-2.1-3.9-2.3-8.1-2.3-9.7v-0.8l0.1-0.8c0.2-1.7,0.4-3.8,0.4-5c-0.7-2.1-1-4.3-1.3-6.9
		c-0.2-1.3-0.4-3.5-0.7-4.6c-2-3.5,0.9-7.7,0.6-14.3c-1.1-2.3-2.2-5.5-2.9-9.6c-0.7-4.5,3.8-19.4,12.3-35.1l15,88"/>
	<path class="st7" d="M295.2,506.2C295.2,506.2,295.2,506.2,295.2,506.2C295.2,506.2,295.2,506.2,295.2,506.2z"/>
	<path class="st7" d="M222.1,343.8C222.2,343.8,222.2,343.8,222.1,343.8C222.2,343.8,222.2,343.8,222.1,343.8z"/>
	<path class="st7" d="M228.6,283.1C228.6,283.1,228.6,283.1,228.6,283.1C228.6,283.1,228.6,283.1,228.6,283.1z"/>
	<path class="st7" d="M358.8,174.6C358.8,174.6,358.8,174.6,358.8,174.6C358.8,174.6,358.8,174.6,358.8,174.6z"/>
	<path class="st7" d="M356.6,161.9C356.6,161.9,356.6,161.9,356.6,161.9C356.6,161.9,356.6,161.9,356.6,161.9z"/>
</g>
<g id="Layer_13">
	<path class="st9" d="M462,234c10,6,13,10,13,10s3,2,7,0s4,3,8,2s13,6,16,7s8,6,8,6s5,4,10,7s7,7,9,9s21.1,20.6,32,37
		c1.1,1.6,2.5,3.8,3.5,5.5c0.8,1.3,1.9,2.5,3.3,3.4c1,0.6,2.2,1.6,3.2,3.1c2,3,0,3,1,5s3,2,3,4s1,2,1,2s5,3,1,6s-41,31-41,31
		c-3,2-7,1-7,1s-3,0-4-3s-13-1-13-1s0,5-6,8s1,4-5,8s-4,17-13,23s7,2-1,17c-3.8,7-12.2,25-12.2,25l-205.9,0L235,350c0,0-4,0-4-5
		s1-5,1-5s0-4-1-5s-1-4,0-8s2-1,1-5s2-11,2-11s2-8,3-11s0-7,2-10s5-13,6-17s9-26,15-30s15-14,15-14s6-4,10-2s9,2,12,0s6-3,10-3
		s12,2,15,1s8-6,16-6s11-5,11-5s2-2,5-4s6-6,6-6s2-4,7-4s6-1,10,0S462,234,462,234z"/>
</g>
<g id="Layer_37">
	<path class="st10" d="M420,302c1-9-24-46-28-43s-7-2-7-2l-14,5c0,0,14,32,21,31s9,5,8,9s5,19,7,21s-3,11-2,13s19,6,20,4
		c1.3-2.5-1-17,8-30s25-29,24-43s-34,25-35,30L420,302z"/>
</g>
<g id="Layer_35">
	<circle class="st11" cx="410" cy="302" r="4"/>
	<ellipse transform="matrix(0.668 -0.7442 0.7442 0.668 -70.8231 378.258)" class="st11" cx="388.5" cy="268.5" rx="2.5" ry="4.5"/>
	<circle class="st12" cx="410" cy="302" r="2"/>
	<path class="st13" d="M232,322c-1-4,2-11,2-11s2-8,3-11s0-7,2-10s5-13,6-17s9-26,15-30"/>
	<path class="st14" d="M339,226c0-0.8,0.6-7.1,1.3-7.1c6.3-0.8,8.7-4.9,8.7-4.9s2-2,5-4s6-6,6-6s1-3,7-4c3.1-0.5,4.5-0.4,6.1-0.4
		c0.4,0-0.1,1.4-0.1,1.4s-5.1-0.2-7,1c0,0-7,24,19,55l-15,8c0,0-10.8,4.2-20-5c-3-3-3.3-5.1-4-7C340,237,339,226,339,226z"/>
	<path class="st15" d="M454,264l3,3c0,0-27,17-30,24c0,0,9-14,13-17s7-8,7-8s-2-7,0-9s3-8,3-8l8,2v10L454,264z"/>
	<path class="st14" d="M472,270c0,0-2-9-14-7c0,0-0.2-0.7-0.5-1.8c-1.1-3.4-2.7-11.7-6.5-13.2l2-9c0,0,1-2,7-2S472,270,472,270z"/>
	<line class="st16" x1="409.1" y1="301.7" x2="410.9" y2="302.3"/>
	<line class="st16" x1="410.3" y1="301.1" x2="409.7" y2="302.9"/>
</g>
<g id="Layer_14">
	<path class="st17" d="M599.1,450c-1.1-1.7-3.6-4.6-9.1-9c-26.2-21-58-69-58-69c-2-11,32-28,40-32s10-2,12,1c1.8,2.6,11,12,11,12
		s23,17,35,39s25,48,25,48s1.8,4.1,2.6,10H599.1z"/>
	<path class="st17" d="M250,450c-3.9-16.7-13.8-80.4-16.8-105.7c-0.1-0.4,16.3-17.1,72.8,1.7c5.4,1.8,5,14,8,29c3.7,18.3,4,35,4,35
		s-0.2,23.9-6,34l-1,6H250z"/>
</g>
<g id="Layer_38">
	<path class="st18" d="M649.7,450c-6.1-15-16.3-37.2-29.7-55c-27-36-53.8-52-53.8-52c2.5-1.3,4.5-2.3,5.8-3c8-4,10-2,12,1
		c1.8,2.6,11,12,11,12s23,17,35,39s25,48,25,48s1.8,4.1,2.6,10H649.7z"/>
	<path class="st19" d="M317.4,450l-5.4-6c0,0-2.2,2.5-3.3,6L317.4,450z"/>
	<path class="st18" d="M294.5,342.5c-0.5-0.5,7.4,2.2,11.5,3.5c5.4,1.8,5,14,8,29c3.7,18.3,4,35,4,35s0,9-0.4,8.3
		C307.9,401,308.9,356.1,294.5,342.5z"/>
</g>
<g id="Layer_33">
	<path class="st20" d="M599.1,450c-1.1-1.7-3.6-4.6-9.1-9c-26.2-21-58-69-58-69c-0.6-3.5,2.4-7.6,7-11.7c-1.1,1.6,27.4,50.9,72,82.7
		c2.7,1.9,2.5,4.3,0.6,7H599.1z"/>
	<path class="st20" d="M251.5,450c-1.2-4.4-2.6-10.1-4.5-18c-3.9-16.7-10.8-62.4-13.8-87.7c0-0.2,4.3-4.8,16.3-6.5
		c0,0,1.2,66.5,19.1,112.2H251.5z"/>
	<path class="st21" d="M316.9,425.3c-0.8,6.7-2.3,14.1-4.9,18.7c0,0-3-3-4-7C307.1,433.3,316.9,425.3,316.9,425.3z"/>
</g>
<g id="Layer_17">
	<g>
		<path class="st22" d="M311.8,444.9"/>
	</g>
	<path d="M316.9,450c-1.9-1.9-3.8-3.9-5.5-5.9c-1.2-1.5-2.4-3-3.4-4.7c-1-1.7-1.8-3.5-2.1-5.4l0.4-0.1c1.1,1.7,2.3,3,3.6,4.3
		c1.3,1.3,2.7,2.5,4,3.7c2.8,2.4,5.6,4.9,8.3,7.5c0.2,0.2,0.3,0.3,0.5,0.5L316.9,450z"/>
	<path d="M247.8,450c-0.9-3.1-1.7-6.2-2.4-9.3c-0.9-3.7-1.7-7.3-2.5-11.1c-0.8-3.7-1.4-7.5-2-11.2c-1.2-7.5-2.3-14.9-3.1-22.4
		c-0.9-7.5-1.7-15-2.4-22.5l-0.9-11.3l-0.4-5.6l-0.3-5.7l0.4-0.1c2,14.9,4.2,29.7,6.6,44.6c1.2,7.4,2.4,14.8,3.7,22.2
		c0.7,3.7,1.4,7.4,2.1,11.1c0.8,3.7,1.7,7.3,2.6,11c0.9,3.4,1.7,6.8,2.6,10.2L247.8,450z"/>
	<path d="M657.3,450c-0.3-2-0.7-4-1.3-6c-0.5-1.6-0.9-3.2-1.7-4.7l-2.3-4.5c-3.1-6-6.1-12-9.2-17.9l-9.4-17.9l-2.4-4.4
		c-0.8-1.5-1.6-3-2.5-4.4l-1.3-2.2l-1.4-2.1c-0.9-1.4-1.9-2.8-2.9-4.1c-4-5.4-8.4-10.5-13.1-15.3c-4.7-4.8-9.7-9.3-15.1-13.4l0,0
		l0,0c-2-1.8-4-3.7-5.9-5.7c-0.9-1-1.9-2-2.8-3c-0.9-1.1-1.8-2.1-2.4-3.4l0.4-0.1c0.6,1.1,1.6,2.1,2.6,3c1,0.9,2,1.8,3,2.7
		c2,1.8,4.1,3.5,6.2,5.2l-0.1-0.1c5.8,3.8,11,8.1,16.1,12.7c5,4.7,9.8,9.7,14,15.2c1.1,1.4,2.1,2.8,3.1,4.2l1.5,2.2l1.4,2.2
		c0.5,0.7,0.9,1.5,1.3,2.2l1.2,2.2l2.4,4.4l4.8,8.9c1.6,3,3.1,6,4.6,9c3.1,6,6.1,12,9,18.1l2.2,4.6l0.3,0.6c0.1,0.2,0.3,0.7,0.3,0.8
		c0.2,0.5,0.3,0.9,0.5,1.3c0.3,0.9,0.5,1.7,0.7,2.6c0.5,2.3,0.9,4.5,1.2,6.9H657.3z"/>
	<path d="M605.4,436.5c-1.4,1.9-2.4,3.8-3.4,5.8c-0.5,1-0.9,2-1.4,3c-0.4,1-0.8,2-1.2,3.1c-0.1,0.4-0.2,0.8-0.4,1.1
		c-0.1-0.2-0.2-0.4-0.4-0.5c-0.7-0.9-1.4-1.7-2.2-2.5c-1.5-1.6-3.2-3.1-4.9-4.5c-3.4-2.8-6.7-5.6-9.9-8.7
		c-6.3-6.1-12.2-12.6-17.9-19.3c-5.7-6.7-11.1-13.6-16.4-20.6c-5.3-7-10.4-14.2-15.3-21.4l-0.3,0.2c2,3.9,4.3,7.7,6.6,11.5l3.5,5.7
		c1.2,1.9,2.4,3.7,3.6,5.5l3.7,5.5l3.9,5.4l4,5.3c1.3,1.8,2.7,3.5,4.1,5.2c5.5,6.9,11.5,13.6,17.9,19.8c1.6,1.5,3.2,3.1,5,4.6
		l2.6,2.2l1.3,1.1l1.2,1c1.6,1.3,3.2,2.7,4.6,4.2c0.3,0.3,0.6,0.6,0.9,1h4.2h0.6h1.5c0.1-0.3,0.2-0.7,0.4-1
		c1.4-4.1,2.9-8.3,4.2-12.4L605.4,436.5z"/>
</g>
<g id="Layer_26" class="st0">
	<g class="st1">
		<path class="st19" d="M376,192.5c0-0.1,0-0.2,0-0.3C376,192.3,376,192.4,376,192.5z"/>
		<path class="st19" d="M453.8,237.7c1-0.4,1.7-0.7,2.3-0.9L454,237L453.8,237.7z"/>
		<path class="st19" d="M376.1,191.1c0,0,0-0.1,0-0.1C376.1,191,376.1,191,376.1,191.1z"/>
		<polygon class="st19" points="414,137 414,137 414,137 		"/>
		<path class="st19" d="M462,236C462,236,462,236,462,236C462,236,462,236,462,236L462,236z"/>
		<path class="st19" d="M508,185c-1-1-9-15-12-19s-2-7-2-7l6-7c0,0,0-9-1-11s-1-10-1-12s-3-12-6-15l-6-6l4-13l-53-10l-19,44
			c0,0,0,0,0,0.1c6.4-4.8,17.5-8.7,14.6-14.9c-0.8-1.7,4.2-10.1,4.4-8.2c1,11,6.9,21.1,12,29c1.2,1.9-2.3-0.8-4-3
			c-5.6-7,7.1,17.5,10,21c1.5,1.8-1.1,4.4-5.2,7c3.5,1,7,2.1,10.6,3.1c2.1-2.5,4.7-4.8,6.7-6.1c3.7-2.5,9-2.3,13.3-1.4
			c1.9,0.4,1.1,3.2-0.8,2.9l-2,24.6c1.3-0.5,2.6-1.2,3.8-1.9c1.7-1,3.2,1.6,1.5,2.6c-3.3,1.9-7.1,3.6-10.9,2.6
			c-3.8-1-5.3-3.3-5.9-5.3c-0.2-0.6-1.3-6.4-2-7c-2.3-2-7.7-0.2-7.7-2.9c0.1-2.5,1.8-5.4,4-8c-3.5-1-7-2.1-10.6-3.1
			c-7.6,4.9-20.4,10.3-23.8,13c-5,4-11.1,13.9-12,22c-0.7,6.9,0,17,5,23s18.7,11.1,14,8c-4-2.6-9.5-9-7-7c6.6,5.4,23.3,11.5,26,12
			c3.5,0.7,21.5,3.9,25.7,4.9c3.8-0.3,5.5-1.7,7.3-2.9c3-2,5-4.9,5-10c0-6,1-7,4-9c2.6-1.8,1.4-5.3,0.8-6.2
			c-0.4-0.5-0.3-1.3,0.1-1.8c0.8-1,1.6-2.1,1.6-2.1s0.2-1.5,1.5-4c1-2-1-5-1-5s6-2,8-4S509,186,508,185z"/>
		<path class="st21" d="M376.1,192.2c0-0.4,0-0.8,0.1-1.1C376.1,191.4,376.1,191.8,376.1,192.2z"/>
		<path class="st21" d="M414,137c2.1-4,3.8-7.5,4-7.9C414.8,131.4,412.8,133.9,414,137z"/>
		<path class="st21" d="M462,236c-3.3,0-4.2,0.1-5.8,0.7L462,236z"/>
		<path class="st21" d="M464,236c-0.8,0-1.4,0-2,0c1.9,0.5,17.8,0.5,16,0c-0.1,0-0.2,0-0.3-0.1c-0.5,0-1.1,0.1-1.7,0.1
			C473,236,471,236,464,236z"/>
		<path class="st21" d="M389,171c0,0-2-4-1-13s4-13,9-13s6,2,9,4c0.3,0.2,0.8-0.2,1.4-0.9c-0.6,0.2-1.1,0.4-1.6,0.7
			c0.5-0.3,1-0.5,1.6-0.7c1.7-2,4.4-6.8,6.6-11.1l-20-6l-13,30c0,0-3.7,14.6-4.9,29.9C377.6,176.3,389,171,389,171z"/>
		<path class="st21" d="M426,219c-2.5-2,3,4.4,7,7c4.7,3.1-9-2-14-8s-5.7-16.1-5-23c0.9-8.1,7-18,12-22c3.4-2.7,16.2-8.1,23.8-13
			c-8.2-2.4-16.5-4.9-24.7-7.4c-2.5-0.7-4.9-1.5-7.3-2.5c-1.9-0.8-3.8-1.7-5.9-2.1c-1.5-0.3-3-0.4-4.5,0.1c-0.6,0.7-1.1,1.1-1.4,0.9
			c-3-2-4-4-9-4s-8,4-9,13s1,13,1,13s-11.4,5.3-12.9,19.9c0,0,0,0.1,0,0.1c0,0.4-0.1,0.8-0.1,1.1c0,0.1,0,0.2,0,0.3c0,0.5,0,1,0,1.5
			c0,17-10,24-10,24c2,20,21,42,23,42s2-1,5-1s4,3,4,3s1,3,12,18s9,24,10,21s17-25,21-28s5-7,5-7s2-12,4-17c1.1-2.6,2-7,3-11
			c0.1-0.3,0.5-0.2,0.8-0.3l0.2-0.7l2.1-0.3c1.6-0.6,2.6-0.7,5.8-0.7l0,0c0,0,0,0,0,0c0.6,0,1.2,0,2,0c7,0,9,0,12,0
			c0.6,0,1.2,0,1.7-0.1c-4.2-1.1-22.2-4.2-25.7-4.9C449.3,230.5,432.6,224.4,426,219z"/>
		<path class="st21" d="M411.9,148c2,0.4,3.9,1.4,5.9,2.1c2.4,1,4.9,1.7,7.3,2.5c8.2,2.5,16.5,5,24.7,7.4c4.2-2.7,6.8-5.2,5.2-7
			c-2.9-3.5-15.6-28-10-21c1.7,2.2,5.2,4.9,4,3c-5.1-7.9-11-18-12-29c-0.2-1.9-5.2,6.5-4.4,8.2c2.9,6.2-8.2,10.1-14.6,14.9
			c-0.2,0.4-1.9,4-4,7.9c0,0,0,0,0,0l0,0c-2.2,4.3-4.9,9.1-6.6,11.1C408.8,147.7,410.4,147.7,411.9,148z"/>
		<path class="st21" d="M464,174c0.7,0.6,1.8,6.4,2,7c0.6,2,2.1,4.3,5.9,5.3c3.8,1,7.6-0.6,10.9-2.6c1.7-1,0.2-3.6-1.5-2.6
			c-1.2,0.7-2.5,1.4-3.8,1.9l2-24.6c1.9,0.4,2.7-2.5,0.8-2.9c-4.3-0.8-9.6-1.1-13.3,1.4c-2,1.3-4.6,3.6-6.7,6.1
			c3,0.9,6.1,1.8,9.1,2.7c-3-0.9-6.1-1.8-9.1-2.7c-2.2,2.6-3.9,5.5-4,8C456.3,173.8,461.7,172,464,174z"/>
	</g>
	<g class="st1">
		<g>
			<path class="st21" d="M469.8,164.4c-8.8-2.6-17.7-5.2-26.5-7.8c-4.4-1.3-8.7-2.6-13.1-3.9c-4.3-1.3-8.6-2.5-12.7-4.2
				c-4-1.6-8.4-3.4-12.4-1c-1.7,1-0.1,3.6,1.5,2.6c3.4-2,7.3,0.1,10.5,1.4c4,1.6,8.2,2.7,12.3,4c8.4,2.5,16.8,5.1,25.3,7.5
				c4.8,1.4,9.5,2.8,14.3,4.2C470.9,167.8,471.7,164.9,469.8,164.4L469.8,164.4z"/>
		</g>
	</g>
</g>
<g id="maybe" class="st0">
	<g class="st1">
		<path class="st19" d="M414.7,234.6c-3.6-3.7-9.1-10.4-13.3-12.5c-1.1-0.5-2.1,0.1-2.3,1.3c-0.7,6.3-1.4,9.6-2.2,15.8
			c-0.6,4.6-3.7,8.9-8,10.8c-5.2,2.3-13,2-13,2l3,9l1.9,2.3l9.9,11.9c0,0,8.2-11.1,14.3-17.3c1.5-1.5,5.4-5,7.9-5.8
			c1.7-0.5-7,7.9-5,7c1.7-0.7,12.3-8,14.2-9.3c2.1-1.5,6.8-7.7,6.8-7.7S419,239,414.7,234.6z"/>
		<path class="st19" d="M445,258c2.1-1.6,4.4-6.2,5-9c1-5,4-9,3-10c-1.8-1.8-14,10-16,11C435.5,250.8,439.6,262.1,445,258z"/>
	</g>
	<path class="st23" d="M381,214c0.9-2.7,0.4-14.9,0-17c-0.2-1-4.8-3.1-5-3c-0.2,0.1-0.4,4.2-0.6,4.7c-0.2,0.6-1.2,3.9-1.4,4.3
		c0,0-2.6,6.6-2.4,7c-0.3,0.4-4.1,6.3-4.6,6.8C366.7,217.1,379,220,381,214z"/>
</g>
<g id="reserve" class="st0">
	<path class="st23" d="M492,114c3,3,6,13,6,15s0,10,1,12s1,11,1,11l-6,7c0,0-1,3,2,7s11,18,12,19s-1,4-3,6s-8,4-8,4s2,3,1,5
		c-1.3,2.5-1.5,4-1.5,4s-0.8,1.1-1.6,2.1c-0.4,0.5-0.5,1.2-0.1,1.8c0.6,0.9,1.9,4.4-0.8,6.2c-3,2-4,3-4,9c0,5.1-2,8-5,10
		c-2,1.4-3.9,3-9,3c-3,0-5,0-12,0s-6,0-11,2s-3,11-3,11s-1,6-3,8s0,8,0,8s-2,5-6,8s-20,25-21,28s1-6-10-21s-12-18-12-18s-1-3-4-3
		s-3,1-5,1s-21-22-23-42c0,0,10-7,10-24s13-23,13-23s-2-4-1-13s4-13,9-13s6,2,9,4c1.9,1.2,12-20,12-20l19-44l53,10l-4,13L492,114z"
		/>
	<g class="st1">
		<path class="st21" d="M478,236c-3.6-1-22.4-4.3-26-5c-2.7-0.5-19.4-6.6-26-12c-2.5-2,3,4.4,7,7c4.7,3.1-9-2-14-8s-5.7-16.1-5-23
			c0.9-8.1,7-18,12-22c5.2-4.2,33.3-14.9,29-20c-2.9-3.5-15.6-28-10-21c1.7,2.2,5.2,4.9,4,3c-5.1-7.9-11-18-12-29
			c-0.2-1.9-5.2,6.5-4.4,8.2c4.3,9.2-22.3,13.4-18.6,22.8l-20-6l-13,30c0,0-4,16-5,32s-11,26-11,26l14,42l40,48l29-36l2-23l4-13l8-1
			C463.9,236.5,479.9,236.5,478,236z"/>
		<path class="st21" d="M481.3,181.2c-1.2,0.7-2.5,1.4-3.8,1.9l2-24.6c1.9,0.4,2.7-2.5,0.8-2.9c-4.3-0.8-9.6-1.1-13.3,1.4
			c-4,2.7-10.5,9.3-10.7,14.1c-0.1,2.7,5.4,0.8,7.7,2.9c0.7,0.6,1.8,6.4,2,7c0.6,2,2.1,4.3,5.9,5.3c3.8,1,7.6-0.6,10.9-2.6
			C484.4,182.8,482.9,180.2,481.3,181.2z"/>
	</g>
	<g class="st1">
		<g>
			<path class="st21" d="M469.8,164.4c-8.8-2.6-17.7-5.2-26.5-7.8c-4.4-1.3-8.7-2.6-13.1-3.9c-4.3-1.3-8.6-2.5-12.7-4.2
				c-4-1.6-8.4-3.4-12.4-1c-1.7,1-0.1,3.6,1.5,2.6c3.4-2,7.3,0.1,10.5,1.4c4,1.6,8.2,2.7,12.3,4c8.4,2.5,16.8,5.1,25.3,7.5
				c4.8,1.4,9.5,2.8,14.3,4.2C470.9,167.8,471.7,164.9,469.8,164.4L469.8,164.4z"/>
		</g>
	</g>
</g>
<g id="goede">
	<path class="st17" d="M492,117c3,3,6,10,6,12s0,10,1,12s1,11,1,11l-6,7c0,0-1,3,2,7s11,18,12,19s-1,4-3,6s-8,4-8,4s2,3,1,5
		c-1.3,2.5-1.5,4-1.5,4s-0.8,1.1-1.6,2.1c-0.4,0.5-0.5,1.2-0.1,1.8c0.6,0.9,1.9,4.4-0.8,6.2c-3,2-4,3-4,9c0,5.1-2,8-5,10
		c-2,1.4-3.9,3-9,3c-3,0-5,0-12,0s-6,0-11,2s-3,11-3,11s-1,6-3,8s0,8,0,8s-2,5-6,8s-20,25-21,28s1-6-10-21s-12-18-12-18s-1-3-4-3
		s-3,1-5,1s-21-22-23-42c0,0,10-7,10-24s13-23,13-23s-2-4-1-13s4-13,9-13s6,2,9,4c1.9,1.2,12-17,12-17l19-44l53,7l-4,16L492,117z"/>
	<g>
		<path class="st22" d="M376,192.5c0-0.1,0-0.2,0-0.3C376,192.3,376,192.4,376,192.5z"/>
		<polygon class="st22" points="414,137 414,137 414,137 		"/>
		<path class="st22" d="M453.8,237.7c1-0.4,1.7-0.7,2.3-0.9L454,237L453.8,237.7z"/>
		<path class="st22" d="M462,236C462,236,462,236,462,236C462,236,462,236,462,236L462,236z"/>
		<path class="st22" d="M376.1,191.1c0,0,0-0.1,0-0.1C376.1,191,376.1,191,376.1,191.1z"/>
		<path class="st22" d="M508,185c-1-1-9-15-12-19s-2-7-2-7l6-7c0,0,0-9-1-11s-1-10-1-12s-3-9-6-12l-6-6l4-16l-53-7l-19,44
			c0,0,0-3,0-2.9c6.4-4.8,17.5-5.7,14.6-11.9c-0.8-1.7,4.2-10.1,4.4-8.2c1,11,6.9,18.1,12,26c1.2,1.9-2.3-0.8-4-3
			c-5.6-7,7.1,17.5,10,21c4.3,5.1-23.8,15.8-29,20c-5,4-11.1,13.9-12,22c-0.7,6.9,0,17,5,23s18.7,11.1,14,8c-4-2.6-9.5-9-7-7
			c6.6,5.4,23.3,11.5,26,12c3.5,0.7,21.5,3.9,25.7,4.9c3.8-0.3,5.5-1.7,7.3-2.9c3-2,5-4.9,5-10c0-6,1-7,4-9c2.6-1.8,1.4-5.3,0.8-6.2
			c-0.4-0.5-0.3-1.3,0.1-1.8c0.8-1,1.6-2.1,1.6-2.1s0.2-1.5,1.5-4c1-2-1-5-1-5s6-2,8-4S509,186,508,185z M482.8,183.7
			c-3.3,1.9-7.1,3.6-10.9,2.6c-3.8-1-5.3-3.3-5.9-5.3c-0.2-0.6-1.3-6.4-2-7c-2.3-2-7.7-0.2-7.7-2.9c0.1-4.9,6.6-11.4,10.7-14.1
			c3.7-2.5,9-2.3,13.3-1.4c1.9,0.4,1.1,3.2-0.8,2.9l-2,24.6c1.3-0.5,2.6-1.2,3.8-1.9C482.9,180.2,484.4,182.8,482.8,183.7z"/>
		<path class="st20" d="M426,219c-2.5-2,3,4.4,7,7c4.7,3.1-9-2-14-8s-5.7-16.1-5-23c0.9-8.1,7-18,12-22c5.2-4.2,33.3-14.9,29-20
			c-2.9-3.5-15.6-28-10-21c1.7,2.2,5.2,4.9,4,3c-5.1-7.9-11-15-12-26c-0.2-1.9-5.2,6.5-4.4,8.2c2.9,6.2-8.2,7.1-14.6,11.9
			c-0.2,0.4-1.9,4-4,7.9c0,0,0,0,0,0l0,0c-3.1,5.9-6.9,12.7-8,12c-3-2-4-4-9-4s-8,4-9,13s1,13,1,13s-11.4,5.3-12.9,19.9
			c0,0,0,0.1,0,0.1c0,0.4-0.1,0.8-0.1,1.1c0,0.1,0,0.2,0,0.3c0,0.5,0,1,0,1.5c0,17-10,24-10,24c2,20,21,42,23,42s2-1,5-1s4,3,4,3
			s1,3,12,18s9,24,10,21s17-25,21-28s6-8,6-8s-2-6,0-8s4-10,4-10s0,0,2-9c0.1-0.3,0.5-0.2,0.8-0.3l0.2-0.7l2.1-0.3
			c1.6-0.6,2.6-0.7,5.8-0.7l0,0c0,0,0,0,0,0c0.6,0,1.2,0,2,0c7,0,9,0,12,0c0.6,0,1.2,0,1.7-0.1c-4.2-1.1-22.2-4.2-25.7-4.9
			C449.3,230.5,432.6,224.4,426,219z"/>
		<path class="st20" d="M481.3,181.2c-1.2,0.7-2.5,1.4-3.8,1.9l2-24.6c1.9,0.4,2.7-2.5,0.8-2.9c-4.3-0.8-9.6-1.1-13.3,1.4
			c-4,2.7-10.5,9.3-10.7,14.1c-0.1,2.7,5.4,0.8,7.7,2.9c0.7,0.6,1.8,6.4,2,7c0.6,2,2.1,4.3,5.9,5.3c3.8,1,7.6-0.6,10.9-2.6
			C484.4,182.8,482.9,180.2,481.3,181.2z"/>
	</g>
	<g>
		<g>
			<path class="st21" d="M469.8,164.4c-8.8-2.6-17.7-5.2-26.5-7.8c-4.4-1.3-8.7-2.6-13.1-3.9c-4.3-1.3-8.6-2.5-12.7-4.2
				c-4-1.6-8.4-3.4-12.4-1c-1.7,1-0.1,3.6,1.5,2.6c3.4-2,7.3,0.1,10.5,1.4c4,1.6,8.2,2.7,12.3,4c8.4,2.5,16.8,5.1,25.3,7.5
				c4.8,1.4,9.5,2.8,14.3,4.2C470.9,167.8,471.7,164.9,469.8,164.4L469.8,164.4z"/>
		</g>
	</g>
	
		<ellipse transform="matrix(0.8202 -0.5721 0.5721 0.8202 -13.4542 252.1131)" class="st24" cx="394.3" cy="147.5" rx="2.2" ry="1.5"/>
</g>
<g id="Layer_36">
	<g>
		<path d="M441,270c-0.3-2.9,0.4-6,1.6-8.7c0.6-1.4,1.3-2.7,2.2-3.9c0.4-0.6,0.9-1.2,1.4-1.7c0.5-0.6,0.9-1.1,1.3-1.6
			c0.8-1.1,1.4-2.4,2-3.6c0.6-1.3,1.1-2.6,1.4-4c0.4-1.4,0.7-2.8,1-4.2c0.3-1.4,0.6-2.8,1.1-4.2l0.1,0c-0.6,2.8-0.8,5.7-1.5,8.5
			c-0.7,2.8-1.7,5.6-3.3,8c-0.8,1.2-1.8,2.3-2.6,3.5c-0.9,1.2-1.6,2.4-2.2,3.7C442.1,264.3,441.2,267.1,441,270L441,270z"/>
	</g>
</g>
<g id="Layer_34">
	<path class="st18" d="M505,190l3-5l-5-8l-3-27l-1-6v-4l-5-21l-6-6h-7c0,0,7.1,11,9,16c1.4,3.7,3.8,15.6,3.8,15.6
		c0.1,0.3-0.8,4.1-0.8,4.4l6,5l-6,7l3.9,17.6c0,0.1,0.2,0.1,0.3,0l0.7-3.1c0.1-0.2,0.3-0.2,0.4,0L505,190z"/>
</g>
<g id="Layer_23">
	<path class="st18" d="M481,208c3-1,13.4-0.7,13.8-0.2c0.4,0.6,1.1,2.3,0.8,3.9C495.3,212.6,481,208,481,208z"/>
	<path class="st20" d="M480,191c3.5,6.4,18,4,18,4l9-6c-7-3-15.9-0.7-19,0c-5.7,1.3,2-9,5-6c0,0-3-4-7-3
		C478.2,182,478,187.3,480,191z"/>
	<path class="st20" d="M492.6,215.1c-6,0.7-15.6-4.1-15.6-4.1s13,14,13,9c0-2.9,1.6-4.2,2.5-4.7C492.8,215.1,492.7,215,492.6,215.1z
		"/>
</g>
<g id="Layer_12">
	<g>
		<path d="M494,214c-1.4,1.1-2.7,2.3-3.1,3.9c-0.4,1.6-0.3,3.4-0.2,5.1c0.1,1.8-0.1,3.7-0.7,5.5c-0.6,1.8-1.8,3.4-3.3,4.7
			c-0.4,0.3-0.8,0.6-1.1,0.9l-1.1,0.8c-0.7,0.5-1.6,1.1-2.5,1.4c-1.8,0.8-3.8,1.1-5.6,1.1c-3.5,0.1-7,0.1-10.5,0.1l-5.2,0
			c-0.9,0-1.7,0-2.4,0.1c-0.7,0.1-1.4,0.4-2.2,0.7l-2.4,1c-0.7,0.3-1.5,0.6-2.1,1c-1.4,0.8-2.7,1.9-3.9,3c-1.3,1.1-2.5,2.4-3.8,3.6
			c-0.6,0.6-1.4,1.2-2.1,1.8c-0.8,0.5-1.5,1-2.3,1.4c-1.6,0.9-3.1,1.6-4.7,2.4c-1.6,0.8-3.2,1.4-4.6,2.5c1.2-1.4,2.7-2.4,4.1-3.4
			c1.4-1,2.9-2,4.3-3c0.7-0.5,1.4-1,2-1.6c0.6-0.5,1.2-1.1,1.8-1.7c1.2-1.2,2.3-2.6,3.6-3.9c1.3-1.3,2.7-2.5,4.3-3.5
			c0.8-0.5,1.7-1,2.5-1.3l2.4-1c0.8-0.3,1.8-0.7,2.8-0.9c1-0.2,1.9-0.2,2.8-0.2c1.8,0,3.5,0,5.3,0c3.5,0,7,0,10.5,0.1
			c1.6,0,3.2-0.2,4.7-0.7c0.7-0.3,1.4-0.6,2.1-1.1l1.1-0.7c0.4-0.2,0.7-0.4,1-0.7c1.3-1,2.3-2.2,3-3.6c0.7-1.4,1-3.1,1.1-4.8
			c0.1-1.8,0.2-3.6,0.9-5.3c0.3-0.9,0.9-1.7,1.6-2.2C492.5,214.9,493.2,214.4,494,214z"/>
	</g>
	<g>
		<path d="M365.9,217.9c1.1-2.2,2-4.1,2.8-6c0.8-1.9,1.6-3.8,2.4-5.7l0.5-1.4c0.2-0.5,0.4-1,0.5-1.4c0.2-0.5,0.4-1,0.6-1.5
			c0.1-0.5,0.3-1,0.5-1.5l0.3-0.8c0.1-0.3,0.2-0.5,0.3-0.8l0.6-1.6c0.4-1,0.8-2.1,1.4-3.2h0.3c0,1.1,0,2.2-0.1,3.4
			c-0.1,1.1-0.2,2.2-0.4,3.4c-0.3,2.2-1,4.4-1.7,6.5c-0.9,2.1-1.9,4.1-3.2,6c-1.3,1.9-2.8,3.6-4.6,4.9L365.9,217.9z"/>
	</g>
</g>
<g id="Layer_4">
	<path class="st25" d="M494,115c10-5,4-20,4-20s1,3-1,5c0,0,3-20-15-25c0,0,3,2,6,6c0,0-21-12-41-20s-50,1-51,4c0,0-1-2,2-4
		c0,0-5.2,2.6-8.3,6.3c-1.7,2-3.7,3.9-5.8,5.4c-4.6,3.2-16.9,10.1-20.8,17.3c-6,11-7,19-6,25s-1,14,0,20c0.3,1.9,0.7,3.4,1.1,4.5
		c1.2,3.2,1.9,6.6,2.2,10c0.3,2.6,0.8,5.2,1.6,6.5c2,3,7,11,8,13s0,10,0,10s0,4,2,5c0,0-1-3,0-4c0,0,0.4,5.8,2,9
		c1,2,1.1,4.6,1.2,5.6c0,0.5,0.6,0.7,1,0.4c2.8-2.5,10.4-11.9,8.8-23c0,0,2,7,10,5s11-27,11-27s6-2,9-1s-3,7-3,7s4,0,6-3s-5,8-1,15
		c0,0,2,5,2,8s5-1,5-1l4,2c0,0-3-6-1-12s7-6,7-12s11-8,11-8s-6.8-5.2-9-16c-1-5-1-13.7-1-13c-0.1,2.2,4.6,15.5,4,8
		c0.2,2.2,0.2-12.4,3-16c4-5,16,0,16,0s20,8,29,8C491,116,494,115,494,115z"/>
	<path class="st26" d="M480.5,153.2c-4.3,0.1-8.6,1-12.5,2.8c-0.9,0.4-1.9,1.3-2.5,2.2c-0.7,1.1-0.5,1.3,0.7,1.5c1,0.2,3-0.2,4-0.4
		c1.1-0.2,1.9,0.8,3,0.5c0.8-0.2,1.1-1.2,0.9-1.9c-0.1-0.1-0.1-0.2-0.2-0.4c0.1,0,0.1,0,0.2-0.1c2.2-0.8,4.5-1.2,6.8-1.3
		c0.8,0,1.4-0.9,1.3-1.6C482.1,153.7,481.3,153.2,480.5,153.2z"/>
</g>
<g id="Layer_32">
	<path class="st27" d="M357,128c-0.3,4-0.6,3.5,0,7c0.3,1.9,0.7,3.4,1.1,4.5c1.2,3.2,1.8,6.5,2.2,9.9c0.3,2.6,1.2,5,1.6,6.6
		c2,7,2,8,8,13c1.7,1.4,0,10,0,10s0,4,2,5c0,0-1-3,0-4c0,0,0.4,5.8,2,9c1,2,1.1,4.6,1.2,5.6c0,0.5,0.6,0.7,1,0.4
		c2.8-2.5,10.4-11.9,8.8-23c0,0,2,7,10,5s11-27,11-27s6-2,9-1s-3,7-3,7s4,0,6-3s-5,8-1,15c0,0,2,5,2,8s5-1,5-1l4,2c0,0-3-6-1-12
		s7-6,7-12s11-8,11-8s-6.8-5.2-9-16c-1-5-1-13.7-1-13h-4l-4,2l1-1l-5-1l1,1l-4,2l-1-2l-3,0l-2-2l-1,5l-2-5l-3,2l-0.8-1.6
		c-0.1-0.2-0.3-0.2-0.4,0l-1.4,2.7c-0.1,0.2-0.4,0.1-0.4-0.1v-6l-7,4l1-3l-11,12l8-13l-6.7,3.6L385,120l1-6l-5.2,3.9l3.2-8.9l-15,15
		l9-12l-10,9l6.6-5.6l-8.1,4.1c-0.2,0.2,0.5-3.5,0.5-3.5l-7,12l2.6-7.7c0.1-0.3-0.3-0.5-0.4-0.2l-2.1,2.6V121
		C360,121,357.2,125,357,128z"/>
	<path class="st26" d="M480.5,153.2c-4.3,0.1-8.6,1-12.5,2.8c-0.9,0.4-1.9,1.3-2.5,2.2c-0.7,1.1-0.5,1.3,0.7,1.5c1,0.2,3-0.2,4-0.4
		c1.1-0.2,1.9,0.8,3,0.5c0.8-0.2,1.1-1.2,0.9-1.9c-0.1-0.1-0.1-0.2-0.2-0.4c0.1,0,0.1,0,0.2-0.1c2.2-0.8,4.5-1.2,6.8-1.3
		c0.8,0,1.4-0.9,1.3-1.6C482.1,153.7,481.3,153.2,480.5,153.2z"/>
</g>
<g id="Layer_30">
	<g>
		<path d="M385.1,172c1,0.7,1.8,1.3,2.5,1.8c0.8,0.5,1.4,0.9,2.1,1.2c0.7,0.3,1.4,0.6,2.3,0.9c0.2,0.1,0.4,0.1,0.7,0.2l0.7,0.2
			c0.5,0.2,1,0.3,1.6,0.5l0,0.2c-0.5,0.1-1,0.2-1.5,0.3c-0.5,0-1,0.1-1.6,0.1c-1.1,0-2.1-0.3-3.1-0.7c-1.9-0.9-3.3-2.8-3.9-4.8
			L385.1,172z"/>
	</g>
	<g>
		<path d="M376.1,194.9c1.5-1.5,2.8-3.2,4-4.9c1.2-1.8,2.2-3.6,2.9-5.6c0.8-1.9,1.5-4,1.8-6.1c0.3-2.1,0.3-4.2,0.1-6.3l0.2,0
			c1,2,1.3,4.3,1.3,6.6c0,2.3-0.6,4.5-1.5,6.6c-0.2,0.5-0.5,1-0.7,1.5c-0.3,0.5-0.5,1-0.8,1.5c-0.3,0.5-0.6,0.9-0.9,1.4
			c-0.3,0.5-0.7,0.9-1,1.3c-1.4,1.7-3.1,3.2-5.2,4.2L376.1,194.9z"/>
	</g>
	<g>
		<path d="M372.5,178.5c-0.3,0.6-0.3,1.3-0.3,2c0,0.7,0.1,1.4,0.2,2.1c0.2,1.4,0.5,2.7,0.9,4c0.2,0.7,0.4,1.3,0.7,1.9
			c0.3,0.6,0.6,1.3,0.8,1.9c0.4,1.3,0.5,2.7,0.5,4.1l-0.1,0c-0.5-1.4-0.8-2.7-1.3-3.9c-0.1-0.3-0.2-0.6-0.4-0.9l-0.4-0.9
			c-0.3-0.7-0.5-1.4-0.7-2.1c-0.4-1.4-0.6-2.8-0.7-4.2c0-0.7,0-1.4,0.1-2.2C371.9,179.8,372,179.1,372.5,178.5L372.5,178.5z"/>
	</g>
	<path class="st22" d="M372,184c0,0-1-3,0-4"/>
	<g>
		<path d="M363.6,161c0.3,1.7,1.5,3,2.6,4.2c0.6,0.6,1.2,1.2,1.9,1.7c0.6,0.6,1.3,1.1,1.9,1.8c0.5,0.8,0.5,1.7,0.6,2.6
			c0.1,0.9,0,1.7,0,2.6c-0.1,1.7-0.2,3.4-0.5,5.1l0,0c0,0.9,0.1,1.9,0.4,2.7c0.3,0.9,0.7,1.8,1.5,2.2l-0.1,0.2
			c-0.5-0.1-1-0.4-1.4-0.8c-0.4-0.4-0.7-0.8-1-1.3c-0.3-0.5-0.4-1-0.6-1.5c-0.2-0.5-0.3-1-0.3-1.6l0-0.2c0-0.8,0-1.7,0-2.5
			c0-0.8,0-1.7,0-2.5l0-2.4c0-0.4,0-0.8-0.1-1.1c0-0.3-0.2-0.7-0.1-0.5c0-0.1-0.3-0.4-0.6-0.7c-0.3-0.3-0.6-0.6-0.9-0.9
			c-0.6-0.6-1.2-1.3-1.7-2c-0.5-0.7-1.1-1.5-1.4-2.4c-0.4-0.9-0.6-1.8-0.5-2.7L363.6,161z"/>
	</g>
	<g>
		<path d="M357.1,115c0.6,3.9,0.2,7.9-0.1,11.8c-0.1,2-0.2,3.9-0.1,5.9c0.1,1.9,0.5,3.9,1,5.7c0.6,1.8,1.3,3.7,1.7,5.6
			c0.4,1.9,0.7,3.9,0.9,5.8c0.2,1.9,0.5,3.9,1.3,5.7c1.1,1.6,1.5,3.7,1.8,5.6l-0.2,0c-0.3-0.9-0.7-1.9-1-2.7
			c-0.2-0.4-0.4-0.9-0.6-1.2c-0.1-0.2-0.2-0.4-0.4-0.5c-0.1-0.1-0.1-0.2-0.2-0.3c-0.1-0.1-0.2-0.2-0.2-0.4c-1.1-2-1.5-4-1.9-6
			c-0.4-1.9-0.7-3.8-1.2-5.6c-0.3-0.9-0.5-1.8-0.8-2.7c-0.1-0.4-0.3-0.9-0.5-1.3c-0.2-0.4-0.4-1-0.5-1.5c-0.3-1-0.5-2-0.7-3.1
			c-0.2-1-0.3-2.1-0.3-3.1c0-2.1,0.1-4.1,0.4-6.1c0.2-2,0.6-3.9,0.9-5.8c0.4-1.9,0.5-3.8,0.6-5.8L357.1,115z"/>
	</g>
	<g>
		<path d="M398.1,61.1c-2.6,1.4-5.1,3.1-7.2,5.2c-1,1.1-1.9,2.3-3,3.3c-1.1,1.1-2.2,2.1-3.4,3c-2.5,1.7-5,3.3-7.5,5
			c-2.5,1.7-4.9,3.4-7.2,5.4c-2.3,1.9-4.5,4-6.1,6.5c-1.5,2.6-2.8,5.3-3.9,8c-2.2,5.5-3.5,11.6-2.6,17.5l-0.3,0
			c-1.1-2.9-1.3-6.1-1.2-9.2c0.2-3.1,0.8-6.2,1.8-9.2c0.5-1.5,1-3,1.6-4.4c0.3-0.7,0.6-1.4,1-2.1c0.3-0.7,0.6-1.4,1.1-2.2
			c0.9-1.5,2-2.8,3.1-4c1.1-1.2,2.3-2.3,3.5-3.3c2.4-2,5-3.8,7.5-5.4c2.6-1.6,5.3-3.1,7.7-4.6c1.2-0.7,2.3-1.6,3.4-2.5
			c1.1-0.9,2-1.9,3.3-3c2.5-2,5.3-3.4,8.2-4.3L398.1,61.1z"/>
	</g>
	<g>
		<path d="M487.9,81.1c-7.2-4-14.4-7.8-21.8-11.3c-3.7-1.8-7.4-3.5-11.2-5.1c-1.9-0.8-3.8-1.6-5.7-2.4c-1.9-0.8-3.8-1.6-5.7-2.1
			c-7.8-2.3-16.2-2.5-24.3-1.7c-4.1,0.4-8.1,1.1-12.1,2.1c-2,0.5-4,1-5.9,1.7c-1,0.3-1.9,0.7-2.8,1.1c-0.5,0.2-0.9,0.4-1.3,0.7
			c-0.4,0.3-0.9,0.6-1,1l-0.3-0.1c0.2-0.6,0.7-0.9,1.1-1.3c0.4-0.3,0.9-0.6,1.3-0.9c0.9-0.5,1.8-1,2.8-1.5c1.9-0.9,3.9-1.6,5.8-2.3
			c4-1.3,8.1-2.3,12.2-2.9c8.3-1.2,17-1.2,25.4,1.2c1,0.3,2.1,0.7,3.1,1.1c1,0.4,1.9,0.8,2.9,1.2c1.9,0.8,3.8,1.6,5.7,2.5
			c1.9,0.9,3.7,1.8,5.6,2.7c1.9,0.9,3.7,1.9,5.5,2.9c7.2,3.9,14.3,8.2,20.9,13.2L487.9,81.1z"/>
	</g>
	<g>
		<path d="M496.9,100c0.3-2.6,0.2-5.3-0.2-7.9c-0.4-2.6-1.2-5.2-2.5-7.5c-1.2-2.3-3-4.4-5.1-6c-2.1-1.6-4.6-2.7-7.1-3.5l0.1-0.2
			c2.8,0.1,5.5,0.9,8,2.4c1.2,0.7,2.3,1.7,3.3,2.8c1,1.1,1.8,2.3,2.5,3.5c0.7,1.3,1.2,2.6,1.6,4c0.3,1.4,0.6,2.8,0.7,4.2
			c0.2,2.8-0.1,5.6-1.1,8.2L496.9,100z"/>
	</g>
	<g>
		<path d="M439.1,124l0,0.1c0,0,0,0.1,0,0c0.2,0-0.3,0-0.3,0l0,0l0,0l0-0.3l0-0.6l0-1.1l0.1-2.3c0.1-1.5,0.1-3,0.3-4.5
			c0.1-1.5,0.3-3,0.7-4.5c0.2-0.7,0.4-1.5,0.6-2.2c0.3-0.7,0.7-1.4,1.3-1.9c1.2-1.1,2.8-1.5,4.3-1.6c1.5-0.1,3.1,0,4.5,0.3
			c3,0.5,5.9,1.6,8.6,2.7c5.6,2.1,11.3,4.1,17.1,5.7c2.9,0.8,5.8,1.5,8.8,1.8c2.9,0.3,6,0,8.8-0.9l0,0c0.8-0.4,1.6-0.9,2.3-1.5
			c0.7-0.6,1.3-1.3,1.7-2.1c0.9-1.6,1.4-3.4,1.6-5.2c0.2-1.8,0-3.7-0.3-5.5c-0.3-1.8-0.8-3.6-1.4-5.4l0.3-0.1
			c0.9,1.7,1.6,3.5,2.1,5.3c0.5,1.9,0.8,3.8,0.8,5.8c0,2-0.5,4.1-1.5,6.1c-0.5,1-1.2,1.9-2,2.7c-0.8,0.8-1.7,1.4-2.7,2l-0.1,0
			l-0.2,0.1c-1.7,0.6-3.2,0.9-4.8,1.2c-0.8,0.1-1.6,0.2-2.4,0.2c-0.8,0-1.7,0-2.5,0c-3.2-0.3-6.3-0.8-9.3-1.6
			c-3-0.8-5.9-1.7-8.8-2.6c-2.9-1-5.7-2-8.6-3.2l-1.1-0.4l-1-0.4c-0.6-0.3-1.3-0.5-2-0.8c-1.3-0.5-2.7-0.9-4-1.2
			c-1.3-0.3-2.7-0.5-3.9-0.5c-1.2,0-2.3,0.3-3,0.8c-0.2,0.1-0.3,0.3-0.4,0.4c-0.1,0.2-0.3,0.4-0.4,0.7c-0.3,0.5-0.5,1.2-0.7,1.8
			c-0.4,1.3-0.7,2.8-1,4.2c-0.3,1.4-0.5,2.9-0.8,4.4l-0.4,2.2l-0.2,1.1l-0.1,0.6l-0.1,0.3l0,0l0,0c0.1,0.1-0.6,0.1-0.4,0
			c0-0.1,0-0.1,0-0.1l0-0.1L439.1,124z"/>
	</g>
	<g>
		<path class="st22" d="M439,124"/>
	</g>
	<g>
		<path class="st22" d="M435,116"/>
	</g>
	<g>
		<path d="M444.9,145.1c-2.7-1-4.9-2.9-6.8-5.1c-1.8-2.2-3.2-4.8-4-7.6c-0.2-0.7-0.4-1.4-0.6-2.1c-0.2-0.7-0.3-1.4-0.4-2.1
			c-0.2-1.4-0.1-2.8-0.1-4.2l0.2-2.1c0.1-0.7,0.2-1.4,0.3-2c0.1-0.7,0.3-1.4,0.5-2l0.3-1l0.2-0.5l0.1-0.2l0.1-0.1l0-0.1c0,0,0,0,0,0
			c0,0,0,0,0,0c0.6-0.1,0.2,0,0.3,0c0,0,0,0,0,0l-0.3,0l0-0.1c0.1,0-0.3,0,0.3,0c0,0.1,0,0,0,0.1l0,0l0,0.1l0,0.1l0,0.2l0,0.5l0,1
			l0.1,2c0.1,1.3,0.1,2.6,0.3,4c0.1,1.3,0.3,2.6,0.5,3.9c0.1,0.7,0.2,1.3,0.4,1.9c0.2,0.6,0.3,1.3,0.5,1.9c0.7,2.5,1.8,5,3.1,7.2
			c1.4,2.2,3,4.3,5,6.1L444.9,145.1z"/>
	</g>
	<g>
		<path d="M427.9,177c-1.4-3.1-2.1-6.7-1.5-10.1c0.3-1.7,0.9-3.4,1.9-4.8c1-1.5,2.3-2.6,3.5-3.8c1.2-1.2,2-2.7,2.1-4.4
			c0-0.4,0-0.8,0.1-1.3l0.1-0.7l0.2-0.6c0.3-0.8,0.9-1.5,1.5-2.2c1.3-1.2,2.8-2,4.4-2.7c1.6-0.7,3.2-1.1,4.9-1.5l0,0.2
			c-1.6,0.7-3.1,1.4-4.6,2.3c-1.4,0.8-2.8,1.8-3.7,2.8c-0.4,0.6-0.8,1.1-0.9,1.7l-0.1,0.4c0,0.1,0,0.3,0,0.4c0,0.2,0,0.8,0,1.3
			c-0.1,1-0.3,2.1-0.8,3.1c-0.5,1-1.1,1.8-1.7,2.6c-1.3,1.4-2.5,2.3-3.4,3.5c-0.9,1.2-1.4,2.6-1.9,4c-0.8,3-0.6,6.4,0.2,9.8
			L427.9,177z"/>
	</g>
	<g>
		<path d="M417.9,152.9c0.1-0.2,0.1-0.3,0.2-0.5c0,0,0,0,0-0.1c0,0,0-0.1,0.1-0.1c0,0,0.1,0,0.2,0c0.1,0.1,0.1,0.1,0.1,0.1
			c0,0,0,0,0,0.1c0,0,0,0.1,0,0.1l0,0.2l0,0.3l-0.2,1c-0.1,0.7-0.3,1.4-0.4,2c-0.3,1.3-0.4,2.7-0.5,4c-0.1,1.3-0.1,2.6,0.1,3.8
			c0.2,1.2,0.5,2.3,1.1,3.3l0,0.1l0.1,0.2c0.5,1.2,0.9,2.4,1.2,3.6c0.3,1.2,0.6,2.5,0.7,3.9c0,0.3,0,0.7,0,1.1c0,0.2,0,0.2-0.1,0
			c-0.1-0.1-0.3-0.2-0.4-0.2c-0.1,0-0.1,0-0.1,0c0.1,0,0.3,0,0.5-0.1c0.9-0.3,2-0.8,3-1.4l0.6-0.4l0.4,0.3c0.6,0.4,1.2,0.9,1.8,1.3
			c0.6,0.5,1.2,0.9,1.8,1.4l-0.1,0.2l-4-2l0.1,0c-1,0.7-2,1.5-3.1,1.9c-0.3,0.1-0.6,0.2-0.9,0.2c-0.3,0-0.7-0.1-0.9-0.4
			c-0.2-0.3-0.2-0.7-0.2-1c0-0.3,0-0.6-0.1-0.9c-0.1-1.2-0.4-2.4-0.8-3.5c-0.3-1.2-0.7-2.3-1.2-3.4l0,0c-0.7-1.2-1.1-2.7-1.2-4.1
			c-0.1-1.4,0-2.8,0.2-4.2c0.2-1.4,0.6-2.7,1.1-4.1c0.2-0.7,0.5-1.3,0.8-2l0.4-1l0.1-0.2l0-0.1c0,0,0,0,0,0c0,0,0,0,0,0
			c0,0,0.1,0.1,0.1,0.1c0,0,0,0,0,0l0,0l-0.3,0.4L417.9,152.9z"/>
	</g>
	<g>
		<path d="M415,148.9c0.5-0.3,1.2-0.1,1.6,0.5c0.4,0.6,0.5,1.3,0.5,1.8c0,1-0.4,1.8-0.9,2.5c-0.5,0.7-1,1.2-1.7,1.6
			c-0.7,0.4-1.5,0.7-2.5,0.8l-0.1-0.1c0.9-1.1,1.9-2.2,2.7-3.4c0.4-0.6,0.8-1.2,1-1.9c0.2-0.6,0.1-1.4-0.6-1.6L415,148.9z"/>
	</g>
	<path class="st27" d="M480.5,153.2c-4.3,0.1-8.6,1-12.5,2.8c-0.9,0.4-1.9,1.3-2.5,2.2c-0.7,1.1-0.5,1.3,0.7,1.5c1,0.2,3-0.2,4-0.4
		c1.1-0.2,1.9,0.8,3,0.5c0.8-0.2,1.1-1.2,0.9-1.9c-0.1-0.1-0.1-0.2-0.2-0.4c0.1,0,0.1,0,0.2-0.1c2.2-0.8,4.5-1.2,6.8-1.3
		c0.8,0,1.4-0.9,1.3-1.6C482.1,153.7,481.3,153.2,480.5,153.2z"/>
</g>
<g id="Layer_22">
	<path class="st28" d="M488.5,96.6"/>
	<path class="st29" d="M492,88c-2.8-6.4-11.4-7.9-15-11c-8-7-18-9-18-9c5.8,1.1,11.2,7.3,14,9c4.4,2.7,6.5,4.9,6.5,4.9
		c-10.7-7.1-37-12.7-52.5-8.9c37.2-0.3,54,12,57,17c-6.7-5.9-26-8-26-8c11.4,4.7,28.8,8.9,33.2,20.7c0,0-0.4-3-1.3-6.6
		c2.3,3,3.5,10.4,4.1,12.9c0.8,0.2-2.5-16-4-19c-1.7-3.4,4,7,5,11C494.6,95.6,494.1,92.9,492,88z"/>
	<path class="st29" d="M459.1,94.1c0,0,14.1,5.3,10.9,2.9c-4-3-26-11-54-8c0,0,40-9,61,6c5.2,3.7,6,10.6,8.4,15.4
		C485.4,110.4,469,102,459.1,94.1z"/>
	<path class="st29" d="M381.3,79.2c-1.9,1.7-3.7,3.6-5.1,5.7c-1.4,2.1-7.6,5.4-8.1,8c1.6-2,10.9-8.8,18.1-11.9
		c-0.2,0.3-8.1,6.1-10.6,20.6c1.5-2.8,3.9-2.4,5.4-5c1.5-2.6,3.1-5.1,4.8-7.5c1.7-2.4,3.6-4.7,5.7-6.8c2.1-2.1,4.4-3.9,7.1-5.6
		c-1.6,0.3-3.2,0.8-4.8,1.6c2.3-6.1,8.8-11,9.7-11.9C387,73,381.8,78.7,381.3,79.2z"/>
	<g>
		<g>
			<path class="st21" d="M497.4,150.6c-3.3,1.1-6.7,0.8-10,1.9c-0.8,0.2-1.3,1-1,1.8c0.2,0.8,1.1,1.3,1.8,1c3.3-1,6.7-0.8,10-1.9
				c0.8-0.3,1.3-1,1-1.8C499.1,150.9,498.2,150.3,497.4,150.6L497.4,150.6z"/>
		</g>
	</g>
	<g>
		<g>
			<path class="st21" d="M494.6,157.9c-1.7-0.1-3.3,0-5,0.1c-0.4,0-0.8,0.1-1.1,0.4c-0.3,0.3-0.5,0.7-0.4,1.1c0,0.8,0.7,1.6,1.5,1.5
				c1.7-0.1,3.3-0.2,5-0.1c0.8,0,1.5-0.7,1.5-1.5C496.1,158.5,495.5,157.9,494.6,157.9L494.6,157.9z"/>
		</g>
	</g>
</g>
<g id="Layer_10">
	<g>
		<path d="M496.6,203.5c0.1,0.6,0,1.3-0.4,1.8c-0.3,0.5-1,0.9-1.1,1.2c0,0.1,0,0,0,0l0.1,0.4c0,0.2,0.1,0.3-0.1,0.8
			c-0.1,0.2-0.4,0.4-0.6,0.5c-0.2,0.1-0.3,0.1-0.4,0.1c-0.7,0.1-1.2,0.1-1.8,0.1c-2.3,0-4.4-0.4-6.6-0.5c-1.1,0-2.2-0.1-3,0.3
			c-0.7,0.3-1.3,0.2-1.9,0.2c-0.6,0-1.2-0.1-1.7-0.2c-2.3-0.4-4.4-0.9-6.6-1.6l0-0.2c2.2,0.4,4.4,0.7,6.6,0.8c0.5,0,1.1,0,1.6,0
			c0.5,0,1.1-0.1,1.4-0.3c1.2-0.6,2.4-0.6,3.6-0.7c2.3-0.1,4.6-0.1,6.8,0.3c0.5,0.1,1.1,0.1,1.5,0.2c0,0,0.1,0,0,0
			c-0.1,0-0.2,0.1-0.2,0.2c-0.1,0.2,0,0.1,0-0.1c0-0.1,0-0.3,0.1-0.4c0-0.3,0.2-0.6,0.3-0.7c0.3-0.3,0.6-0.4,0.8-0.6
			c0.2-0.1,0.5-0.3,0.6-0.4c0.4-0.3,0.6-0.7,0.8-1.3H496.6z"/>
	</g>
	<path d="M491,115.7c0,0,0.4,0.4,0.6,0.6c1.2,1.1,2.1,2.6,2.9,4c0.7,1.5,1.4,0,1.9,1.5c0.4,1,0.7,2.1,1,3.1c0.3,1,0.5,2.1,0.6,3.1
		c0.2,1.3,0.3,2.8,0.4,3.3c0.2,1.6,0.4,3.2,0.6,4.8c0.3,1.6,1,8.8,1,9.8c0,0-2-7.9-2.6-9.5c-0.3-0.8-0.6-1.6-0.8-2.4
		c-0.2-0.8-0.4-1.6-0.6-2.5c-0.2-0.8-0.7-3.3-0.9-4.4c-0.3-1.5-1-2.9-1.4-4.4c-0.5-1.5-2.2-2.7-2.5-3.3c-0.1-0.3-0.9-1.4-1.1-1.7
		c-0.5-0.6-1.4-1.9-1.4-1.9L491,115.7z"/>
	<g>
		<path d="M497.5,141.5c0.8,0.6,1.4,1.3,1.8,2.2c0.4,0.9,0.7,1.8,0.9,2.7c0.2,0.9,0.2,1.9,0.2,2.8c0,0.9-0.1,1.9-0.3,2.8l-0.1,0
			c-0.2-1-0.3-1.9-0.4-2.8c-0.1-0.9-0.2-1.8-0.4-2.7c-0.1-0.9-0.3-1.7-0.6-2.5C498.3,143.2,498,142.4,497.5,141.5L497.5,141.5z"/>
	</g>
	<g>
		<path d="M475,162.3c-1.2,1.3-2.4,2.1-3.6,2.7c-1.3,0.6-2.6,1.1-3.9,1.5c-1.3,0.3-2.7,0.5-4,0.6c-1.4,0.1-2.8-0.1-4.3-0.3l-0.2-0.2
			c1.2-0.9,2.5-1.2,3.9-1.7c1.3-0.4,2.7-0.8,4-1.2c1.4-0.3,2.7-0.6,4.1-0.9c1.4-0.3,2.7-0.6,4.1-0.8L475,162.3z"/>
	</g>
	<g>
		<path d="M499.5,191.5c0,0-3-1-5-1c-1,0-4,0-5,1s3,1,3,1"/>
		<path d="M499.5,191.5c-1.2-0.1-2.3-0.3-3.5-0.4c-0.6-0.1-1.1-0.1-1.7-0.1c-0.6,0-1.1,0-1.7,0.1c-0.6,0-1.1,0.1-1.7,0.2
			c-0.3,0.1-0.5,0.1-0.8,0.2c-0.1,0-0.2,0.1-0.3,0.2c-0.1,0.1-0.2,0.1-0.2,0.2c0,0,0,0,0-0.1c0,0,0,0,0,0c0.1,0.1,0.2,0.1,0.3,0.2
			c0.2,0.1,0.5,0.2,0.8,0.2c0.6,0.1,1.1,0.2,1.7,0.3c-0.6,0.1-1.2,0.1-1.8,0.1c-0.3,0-0.6,0-0.9-0.1c-0.2,0-0.3-0.1-0.5-0.2
			c-0.1-0.1-0.2-0.2-0.3-0.3c-0.1-0.2,0-0.4,0-0.5c0.5-0.8,1.1-0.9,1.7-1.1c0.6-0.2,1.2-0.3,1.8-0.3c0.6-0.1,1.2-0.1,1.8-0.1
			c0.6,0,1.2,0.1,1.8,0.2C497.3,190.5,498.5,190.9,499.5,191.5z"/>
	</g>
	<g>
		<path d="M488.9,194.1c-1.4-0.4-2.6-0.4-4.1-1.2c-0.7-0.4-1.5-1.1-2-1.9c-0.5-0.9-0.6-1.8-0.7-2.6c0-1.7,0.4-3.3,1.3-4.5
			c0.8-1.3,2-2.3,3.4-2.8l0.1,0.1c-0.9,1-1.6,2.1-2.1,3.3c-0.5,1.2-0.8,2.5-0.7,3.8c0,1.3,0.5,2.6,1.6,3.4c1,0.8,2.3,1.3,3.3,2.3
			L488.9,194.1z"/>
	</g>
	<g>
		<path d="M482.5,184.5c-0.1,1.2-0.5,2.3-1,3.4c-0.5,1.1-1.1,2.1-1.7,3.1c-1.4,1.9-3.1,3.6-5.3,4.6l-0.1-0.1
			c1.8-1.5,3.3-3.2,4.5-5.1C480.3,188.5,481.5,186.6,482.5,184.5L482.5,184.5z"/>
	</g>
	<g>
		<path d="M473.5,202.5c-0.3,0.7-0.6,1.3-0.8,1.8c-0.1,0.3-0.1,0.5-0.2,0.8c0,0.3-0.1,0.7-0.3,1.1c-0.4,0.8-1.1,1.3-1.7,1.7
			c-0.6,0.3-1.3,0.6-2.1,0.6l-0.1-0.1c0.6-0.4,1.1-0.7,1.6-1.1c0.5-0.4,1-0.9,1.3-1.5c0.3-0.6,0.3-1.3,0.7-1.9
			C472.5,203.4,473,202.9,473.5,202.5L473.5,202.5z"/>
	</g>
</g>
<g id="Layer_31">
	<g>
		<path d="M494.8,213.2c0.1-1.1,0.1-1.8,0-2.6c-0.1-0.4-0.1-0.8-0.2-1.2c-0.1-0.4-0.2-0.9-0.2-1.2l0.4,0.2c-0.4-0.2-0.8-0.5-1.1-0.8
			l0-0.1l1.3,0.3l0,0l0,0c0.5,0.8,0.8,1.8,0.9,2.8C495.7,211.5,495.5,212.5,494.8,213.2L494.8,213.2z"/>
	</g>
	<g>
		<path d="M497,195c0.6,1,1.1,2,1.3,3.1c0.1,0.6,0,1.2-0.2,1.7c-0.2,0.5-0.5,1-0.7,1.5l-0.1,0c-0.1-0.3,0-0.6,0-0.9
			c0-0.3,0.1-0.7,0.1-0.8c0-0.4,0-0.8-0.1-1.3c0-0.5-0.2-0.9-0.2-1.5C497,196.2,497,195.7,497,195L497,195z"/>
	</g>
</g>
<g id="Layer_6">
	<path class="st30" d="M469,178v-13c0,0,1-7,6-9s9-3,9-3s6-1,6,5s-2,17-7,22s-10,3-10,3S469,182,469,178"/>
	<path class="st30" d="M502,178c8-8,8-24,8-24s0-4-3-4c-4,0-7,1-10,3s-3,7-2,13"/>
</g>
<g id="Layer_29">
	<path class="st31" d="M475,156c2.3-0.9,6-2,6-2l8,14c0,0-1.8,4.2-3,7"/>
	<path class="st31" d="M507.1,169.7c1.1-2.9,1.9-6.7,1.9-6.7l-7-12c0,0-3,0.7-5,2"/>
	<g>
		
			<rect x="507" y="149.4" transform="matrix(0.8742 -0.4856 0.4856 0.8742 -11.1667 265.9065)" class="st31" width="1" height="10.3"/>
	</g>
	<g>
		
			<rect x="486.4" y="153" transform="matrix(0.8742 -0.4856 0.4856 0.8742 -15.546 256.3675)" class="st31" width="1" height="10.3"/>
	</g>
</g>
<g id="Layer_5">
	<path class="st32" d="M469,164l-54-17c0,0-8-2-14,2"/>
	<path class="st32" d="M469,178v-13c0,0,1-7,6-9s9-3,9-3s6-1,6,5s-2,17-7,22s-10,3-10,3S469,182,469,178"/>
	<path class="st33" d="M502,178c8-8,8-24,8-24s0-4-3-4c-4,0-7.1,0.8-10,3c-4,3-2,9-1,14"/>
	<path class="st33" d="M482.9,152.9c8.1-1.9,19.3-3.4,19.3-3.4"/>
	<path class="st32" d="M490,159.7c0-2.7,3.9-3,4.5-1.3"/>
	<line class="st33" x1="510" y1="157.1" x2="511" y2="157"/>
</g>
<g id="Layer_25">
	<path class="st24" d="M503.2,178.5c-0.9-1.7-1.8-3.5-2.8-5.2c-0.1-0.2-0.3-0.5-0.4-0.7c-0.1-0.2-0.4-0.2-0.6-0.1c0,0,0,0,0-0.1
		c-0.2-0.5-0.6-1-0.9-1.5c-0.5-0.9-1-1.7-1.5-2.6c-0.1-0.1-0.1-0.2-0.2-0.4c0,0,0-0.1-0.1-0.1c0-0.1,0-0.2,0-0.3
		c-0.5-0.9-0.9-1.8-1.4-2.8c-0.1-0.1-0.1-0.2-0.2-0.3c0,0,0,0,0,0c0-0.1,0-0.1-0.1-0.2c0,0,0-0.1,0-0.1c0,0,0,0,0,0
		c0,0-0.1-0.1-0.1-0.1c0,0-0.1-0.1-0.1-0.1c0,0-0.1,0-0.1,0c0,0-0.1,0-0.1,0c0,0-0.1,0-0.1,0.1c0,0-0.1,0-0.1,0.1
		c0,0-0.1,0.1-0.1,0.1c0,0,0,0.1,0,0.1c0,0.1,0,0.1,0.1,0.2c0,0.1,0.1,0.2,0.1,0.3c0,0.1,0,0.2,0.1,0.3c0.1,0.4,0.1,0.8,0.2,1.2
		c0.1,0.4,0.1,0.7,0.2,1.1c0.2,0.5,0.7,0.8,1.2,0.9c0,0.1,0,0.2,0,0.2c0.5,0.8,0.9,1.7,1.4,2.5c0.1,0.2,0.2,0.3,0.3,0.5
		c0.3,0.4,0.5,0.9,0.8,1.3c0,0.1,0.1,0.1,0.1,0.2c0,0,0,0,0,0c0,0,0,0,0,0c0,0.1,0.1,0.3,0.1,0.4c0.1,0.1,0.1,0.2,0.2,0.3
		c0.2,0.5,0.4,1,0.7,1.5c0,0.1,0.1,0.1,0.1,0.2c0.3,0.7,0.6,1.4,0.8,2.1c0.1,0.4,0.2,0.7,0.2,1.1c0,0.3,0.1,0.7,0.3,0.9
		c0.3,0.2,0.7,0.2,1,0.2c0.2,0,0.4,0.1,0.5-0.1c0.1-0.1,0.2-0.3,0.2-0.5C503.2,179,503.3,178.7,503.2,178.5z M495.7,167.1
		C495.7,167.1,495.6,167,495.7,167.1C495.6,167,495.7,167.1,495.7,167.1z"/>
</g>
<g id="Layer_8">
	<path class="st20" d="M412,181c-1,11-9,8-12,4c-1.5-1.9-2.7-3.4-4-5c-5-6-6.1-6.3-7-9c-1.2-3.8-1.8-4.5-1-13c0.8-9,4-13,9-13
		s6,2,9,4c1.9,1.2,4,6,4,6"/>
</g>
<g id="Layer_27">
	<path class="st17" d="M396,150c-4.7,1.4-6,12.9-6,17c0,7,10.7,16.4,12,16c3-1,6.5,0.5,9,3c1,1-4,4-7,3c-1.8-0.6-14.8-16.3-15-17
		c-1.2-3.8-1.8-5.5-1-14c0.8-9,4-13,9-13s6,2,9,4c1.9,1.2,4,6,4,6S403,148,396,150z"/>
</g>
<g id="Layer_11">
	<g>
		<path d="M412.1,181c0,1.8,0,3.6-0.8,5.4c-0.2,0.4-0.4,0.9-0.8,1.3l-0.5,0.6c-0.2,0.2-0.4,0.3-0.6,0.5c-0.4,0.4-1,0.6-1.5,0.8
			c-0.5,0.1-1.1,0.3-1.6,0.3c-2.2,0.1-4.2-0.8-5.9-2c-0.4-0.3-0.8-0.6-1.2-1c-0.2-0.2-0.4-0.4-0.5-0.6l-0.5-0.5l-1.7-1.9l-3.4-3.8
			c-1.2-1.3-2.3-2.5-3.6-3.8c-0.6-0.6-1.3-1.4-2-2.4c-0.7-1-1-2.3-1.2-3c-0.3-0.8-0.6-1.7-0.8-2.7c-0.2-1-0.4-2.1-0.4-3.1
			c-0.1-2,0.1-3.8,0.2-5.6c0.2-1.7,0.3-3.6,0.7-5.5c0.4-1.9,1-3.7,2-5.6c0.5-0.9,1.1-1.8,1.8-2.6c0.8-0.8,1.7-1.5,2.8-2
			c1.1-0.5,2.2-0.8,3.3-0.8c1.1-0.1,2.1,0,3,0.2c1,0.2,2,0.5,3,0.9c1,0.5,1.8,1.1,2.5,1.7c0.7,0.6,1.3,1.2,1.9,1.8l0.5,0.4
			c0.2,0.2,0.4,0.4,0.6,0.6c0.4,0.4,0.6,0.8,0.8,1.2c0.9,1.6,1.5,3.3,2.1,5l-0.3,0.1c-0.7-1.6-1.6-3.1-2.6-4.5
			c-0.5-0.7-1.1-1.3-1.9-1.7c-0.7-0.5-1.4-1.1-2.1-1.6c-0.7-0.5-1.4-1-2.2-1.3c-0.8-0.3-1.6-0.5-2.5-0.6c-0.9-0.1-1.7-0.1-2.6,0
			c-0.8,0.1-1.7,0.4-2.4,0.7c-0.8,0.4-1.4,1-2,1.6c-0.5,0.7-1,1.4-1.4,2.1c-0.8,1.5-1.2,3.2-1.5,4.9c-0.3,1.7-0.5,3.4-0.6,5.2
			c-0.1,1.7-0.2,3.5-0.2,5.2c0,1.7,0.5,3.4,1,5c0.3,0.8,0.5,1.7,0.9,2.4c0.4,0.7,1,1.4,1.6,2c2.4,2.6,4.7,5.3,6.8,8l1.6,2.1
			c0.3,0.3,0.5,0.7,0.8,1c0.3,0.3,0.6,0.6,0.9,0.9c1.3,1.1,2.9,1.9,4.6,1.9c1.7,0.1,3.3-1,4.1-2.5c0.8-1.5,1.2-3.2,1.4-5L412.1,181z
			"/>
	</g>
</g>
<g id="Layer_7">
	<g>
		<path d="M392.4,163.7c0.2-2,0.5-4,1.3-5.8c0.8-1.7,2.5-3.1,2.5-5.1c0-0.4-0.1-0.8-0.1-1.1c0-0.2,0-0.3,0.1-0.4
			c0.1,0,0.5,0.1,0.6,0.1c0.9,0.3,1.8,0.8,2.5,1.5c0.7,0.7,1.1,1.7,2,2c0.4,0.1,3.5,0.1,4.5,1.1c0-0.1-0.4-1.2-0.5-1.4
			c-0.9-1.6-2-3.3-3.5-4.4c-0.8-0.6-1.8-1-2.8-1.3c-0.9-0.3-2-0.7-3-0.6c-0.9,0.1-1.7,0.7-2.4,1.2c-1.9,1.4-2.7,4.2-2.8,4.7
			c-0.2,0.8-0.6,4.7,0,10.4c1,10.3,8,12.3,8,12.3S393,174,392.4,163.7z"/>
		<path d="M403,164c0-1.8,3.2-4.2,3.2-4.3c0-0.4-0.3-0.8-0.8-0.8c-3.2,0.4-7.7,2.9-9.3,4.7c-1,1.2-1,3.2-0.9,4.7
			c0.1,1.5,0.6,3.1,1.7,4.2c0.4,0.4,1,0.8,1.6,1c0.8,0.3,4.4,1.5,5.4,3.6c0.6,1.2,2.1,1.8,3.4,1.7c1.1-0.1,2.2-0.7,2.6-1.9
			c0.5-1.6-0.7-2.8-1.4-4.1c-0.4-0.9-0.3-1.9-0.2-2.9c0-0.8-0.4-3.9-0.4-3.9s-3.8,3-4,3C402.9,169.2,403,165.1,403,164z"/>
	</g>
</g>
<g id="Layer_9">
	<g>
		<path d="M494.6,157.5c-0.5,2-0.3,4.1,0.4,5.9c0.4,0.9,0.9,1.7,1.6,2.5c0.7,0.8,1.3,1.7,1.9,2.5c2.4,3.4,4.8,6.8,7.1,10.2
			c1.1,1.8,2.3,3.4,3.4,5.3l0.2,0.5c0.1,0.2,0.1,0.5,0.2,0.7c0,0.4,0,0.8-0.1,1.1c-0.1,0.7-0.4,1.2-0.6,1.8c-0.5,1.1-1.2,2-2,2.8
			c-0.2,0.2-0.4,0.4-0.6,0.6l-0.3,0.3c-0.1,0.1-0.3,0.2-0.4,0.3c-0.5,0.4-1,0.6-1.5,0.8c-1,0.5-2,0.8-3,1.1c-1,0.3-2,0.6-3,0.8
			c-0.9,0.2-1.9,0.7-2.8,1.2l-0.2-0.2c0.7-0.7,1.5-1.4,2.6-1.9l2.8-1.4c0.9-0.4,1.8-0.9,2.7-1.4c0.4-0.2,0.8-0.5,1.1-0.8l0.2-0.2
			l0.2-0.3c0.2-0.2,0.3-0.4,0.4-0.6c0.6-0.8,1.1-1.6,1.5-2.4c0.2-0.4,0.3-0.8,0.4-1.1c0-0.2,0.1-0.3,0-0.4c0-0.1,0,0,0-0.1
			c0-0.1-0.1-0.1-0.1-0.2c-0.8-1.7-1.9-3.6-2.9-5.4c-2-3.6-4.2-7.1-6.3-10.6c-0.5-0.9-1.1-1.8-1.7-2.6c-0.6-0.9-1.2-1.8-1.5-2.9
			c-0.7-2.1-0.6-4.3,0-6.3L494.6,157.5z"/>
	</g>
</g>
<g id="Layer_28">
	
		<ellipse transform="matrix(0.8202 -0.5721 0.5721 0.8202 -13.4542 252.1131)" class="st18" cx="394.3" cy="147.5" rx="2.2" ry="1.5"/>
</g>
<g id="Layer_42" class="st0">
	<rect x="223" y="450" class="st34" width="169" height="97"/>
</g>
</svg>
