<?xml version="1.0" encoding="utf-8"?>
<!-- Generator: Adobe Illustrator 25.0.1, SVG Export Plug-In . SVG Version: 6.00 Build 0)  -->
<svg version="1.1" id="Layer_1" xmlns="http://www.w3.org/2000/svg" xmlns:xlink="http://www.w3.org/1999/xlink" x="0px" y="0px"
	 viewBox="0 0 372.3 262.7" style="enable-background:new 0 0 372.3 262.7;" xml:space="preserve">
<style type="text/css">
	.st0{fill:#3C648E;}
</style>
<g id="Layer_4">
	<g>
		<path class="st0" d="M43.6,193.1c-5.3,0-9.7-0.7-12.2-1.6c-2.7-1-4.2-2.5-4.3-4.6c-0.1-0.8,0.1-3,2.7-4.4c3.7-2,7.4-10,8.7-18.6
			c1-6.5,0-9.9-0.6-10.6c-13.7-14-20.9-30.3-20.9-47.3c0-23,13-44.5,36.7-60.5c23.2-15.8,54.1-24.5,86.8-24.5
			c32.7,0,63.6,8.7,86.8,24.5c23.6,16.1,36.6,37.6,36.6,60.5c0,23-13,44.5-36.7,60.5c-23.2,15.8-54.1,24.5-86.8,24.5
			c-21,0-41.6-3.6-59.6-10.5c-0.1,0-0.2-0.1-0.3-0.1C69.5,190.2,54.6,193.1,43.6,193.1z M36.8,185.6c8.3,1.3,27.9,0.7,40.3-11.7
			c0.7-0.8,2.8-2.3,6-0.1c0.1,0.1,0.2,0.1,0.2,0.2c17.3,6.6,37,10,57,10c64.2,0,116.5-35,116.5-78c0-43-52.2-78-116.4-78
			c-64.2,0-116.5,35-116.5,78c0,15.1,6.5,29.8,18.9,42.5c3.7,3.9,3.2,12,2.5,16.5C44.3,171.8,41.5,180.5,36.8,185.6z M83.2,174
			C83.2,174,83.2,174,83.2,174C83.2,174,83.2,174,83.2,174z"/>
	</g>
	<g>
		<path class="st0" d="M209.3,95.1h-135c-1.9,0-3.5-1.6-3.5-3.5s1.6-3.5,3.5-3.5h135c1.9,0,3.5,1.6,3.5,3.5S211.3,95.1,209.3,95.1z"
			/>
	</g>
	<g>
		<path class="st0" d="M169.3,130.1h-95c-1.9,0-3.5-1.6-3.5-3.5s1.6-3.5,3.5-3.5h95c1.9,0,3.5,1.6,3.5,3.5S171.3,130.1,169.3,130.1z
			"/>
	</g>
	<g>
		<path class="st0" d="M334.4,243.7c-8.7,0-20.5-2.3-29.3-10c-14.8,5.6-30.8,8.4-47.6,8.4c-47.2,0-88-23.1-97.1-55l6.7-1.9
			c8.2,28.9,46.2,50,90.3,50c15.7,0,31.3-2.7,45.1-7.9l0.1,0c3-2.1,5-0.7,5.7,0.1c9.1,9.1,23.3,10,30.2,9.3
			c-3.4-4.3-5.4-10.9-6.1-16.1c-0.6-4.4-0.7-10.4,2.4-13.4c9.7-9.9,14.8-21.3,14.8-33.2c0-15.8-9.1-30.9-25.6-42.4
			c-16.9-11.7-39.5-18.5-63.7-18.9l0.1-7c25.6,0.5,49.6,7.7,67.6,20.2c18.4,12.8,28.6,29.9,28.6,48.1c0,13.7-5.8,26.9-16.8,38.2
			c-0.5,0.6-1.2,3.7-0.1,9.2c1.2,6,3.8,11.4,6.3,12.8c2.4,1.4,2.5,3.4,2.5,4.2c-0.1,1.3-0.9,3.1-4,4.3
			C342.4,243.2,338.8,243.7,334.4,243.7z"/>
	</g>
	<g>
		<path class="st0" d="M317,167.7h-91.7c-1.9,0-3.5-1.6-3.5-3.5s1.6-3.5,3.5-3.5H317c1.9,0,3.5,1.6,3.5,3.5S319,167.7,317,167.7z"/>
	</g>
	<g>
		<path class="st0" d="M285.2,195.6h-75.6c-1.9,0-3.5-1.6-3.5-3.5s1.6-3.5,3.5-3.5h75.6c1.9,0,3.5,1.6,3.5,3.5
			S287.2,195.6,285.2,195.6z"/>
	</g>
</g>
<g id="Layer_1_1_">
</g>
<g id="Layer_2_1_">
</g>
<g id="Layer_3">
</g>
</svg>
