<?xml version="1.0" encoding="utf-8"?>
<!-- Generator: Adobe Illustrator 25.0.1, SVG Export Plug-In . SVG Version: 6.00 Build 0)  -->
<svg version="1.1" id="Layer_1" xmlns="http://www.w3.org/2000/svg" xmlns:xlink="http://www.w3.org/1999/xlink" x="0px" y="0px"
	 viewBox="0 0 463 489.5" style="enable-background:new 0 0 463 489.5;" xml:space="preserve">
<style type="text/css">
	.st0{fill:#22314E;}
</style>
<g id="Layer_4">
</g>
<g id="Layer_1_1_">
	<g>
		<g>
			<path class="st0" d="M157.3,116.7c-3,0-5.5-2.5-5.5-5.5v-40c0-3,2.5-5.5,5.5-5.5s5.5,2.5,5.5,5.5v40
				C162.8,114.2,160.3,116.7,157.3,116.7z"/>
		</g>
		<g>
			<path class="st0" d="M305.7,116.7c-3,0-5.5-2.5-5.5-5.5v-40c0-3,2.5-5.5,5.5-5.5s5.5,2.5,5.5,5.5v40
				C311.2,114.2,308.7,116.7,305.7,116.7z"/>
		</g>
		<g>
			<path class="st0" d="M206.7,116.7c-3,0-5.5-2.5-5.5-5.5V37.3c0-3,2.5-5.5,5.5-5.5s5.5,2.5,5.5,5.5v73.9
				C212.2,114.2,209.7,116.7,206.7,116.7z"/>
		</g>
		<g>
			<path class="st0" d="M256.3,116.7c-3,0-5.5-2.5-5.5-5.5v-40c0-3,2.5-5.5,5.5-5.5c3,0,5.5,2.5,5.5,5.5v40
				C261.8,114.2,259.3,116.7,256.3,116.7z"/>
		</g>
	</g>
	<g>
		<g>
			<path class="st0" d="M157.3,423.7c-3,0-5.5-2.5-5.5-5.5v-40c0-3,2.5-5.5,5.5-5.5s5.5,2.5,5.5,5.5v40
				C162.8,421.2,160.3,423.7,157.3,423.7z"/>
		</g>
		<g>
			<path class="st0" d="M305.7,423.7c-3,0-5.5-2.5-5.5-5.5v-40c0-3,2.5-5.5,5.5-5.5s5.5,2.5,5.5,5.5v40
				C311.2,421.2,308.7,423.7,305.7,423.7z"/>
		</g>
		<g>
			<path class="st0" d="M206.7,423.7c-3,0-5.5-2.5-5.5-5.5v-40c0-3,2.5-5.5,5.5-5.5s5.5,2.5,5.5,5.5v40
				C212.2,421.2,209.7,423.7,206.7,423.7z"/>
		</g>
		<g>
			<path class="st0" d="M256.3,462.8c-3,0-5.5-2.5-5.5-5.5v-79.1c0-3,2.5-5.5,5.5-5.5c3,0,5.5,2.5,5.5,5.5v79.1
				C261.8,460.3,259.3,462.8,256.3,462.8z"/>
		</g>
	</g>
	<g>
		<g>
			<path class="st0" d="M407.6,178.6h-40c-3,0-5.5-2.5-5.5-5.5s2.5-5.5,5.5-5.5h40c3,0,5.5,2.5,5.5,5.5S410.6,178.6,407.6,178.6z"/>
		</g>
		<g>
			<path class="st0" d="M407.6,327.1h-40c-3,0-5.5-2.5-5.5-5.5s2.5-5.5,5.5-5.5h40c3,0,5.5,2.5,5.5,5.5S410.6,327.1,407.6,327.1z"/>
		</g>
		<g>
			<path class="st0" d="M441.5,228.1h-73.9c-3,0-5.5-2.5-5.5-5.5s2.5-5.5,5.5-5.5h73.9c3,0,5.5,2.5,5.5,5.5S444.5,228.1,441.5,228.1
				z"/>
		</g>
		<g>
			<path class="st0" d="M407.6,277.6h-40c-3,0-5.5-2.5-5.5-5.5s2.5-5.5,5.5-5.5h40c3,0,5.5,2.5,5.5,5.5S410.6,277.6,407.6,277.6z"/>
		</g>
	</g>
	<g>
		<g>
			<path class="st0" d="M100.6,178.5h-40c-3,0-5.5-2.5-5.5-5.5s2.5-5.5,5.5-5.5h40c3,0,5.5,2.5,5.5,5.5S103.6,178.5,100.6,178.5z"/>
		</g>
		<g>
			<path class="st0" d="M100.6,327h-40c-3,0-5.5-2.5-5.5-5.5s2.5-5.5,5.5-5.5h40c3,0,5.5,2.5,5.5,5.5S103.6,327,100.6,327z"/>
		</g>
		<g>
			<path class="st0" d="M100.6,228h-40c-3,0-5.5-2.5-5.5-5.5s2.5-5.5,5.5-5.5h40c3,0,5.5,2.5,5.5,5.5S103.6,228,100.6,228z"/>
		</g>
		<g>
			<path class="st0" d="M100.6,277.5H21.5c-3,0-5.5-2.5-5.5-5.5s2.5-5.5,5.5-5.5h79.1c3,0,5.5,2.5,5.5,5.5S103.6,277.5,100.6,277.5z
				"/>
		</g>
	</g>
</g>
<g id="Layer_2_1_">
</g>
<g id="Layer_3">
	<g>
		<path class="st0" d="M310.9,125.3H152.1c-22.1,0-40.1,18-40.1,40.1v158.8c0,22.1,18,40.1,40.1,40.1h158.8
			c22.1,0,40.1-18,40.1-40.1V165.4C351,143.3,333,125.3,310.9,125.3z M276,290.2c-3.5,3.5-7.4,6.4-11.7,8.8c-4.3,2.4-9,4.2-13.9,5.5
			s-9.7,1.9-14.5,1.9c-8.4,0-16.1-1.8-23.1-5.5c-7-3.6-13-8.4-18-14.3c-5.1-5.9-9-12.5-11.8-20s-4.2-15.1-4.2-22.8
			c0-7.3,1.3-14.6,3.9-21.8c2.6-7.2,6.4-13.7,11.4-19.5c5-5.8,11-10.4,18.2-13.9s15.3-5.3,24.5-5.3c10.8,0,20.1,2.5,28,7.4
			c7.8,4.9,13.7,11.3,17.5,19.2l-15,10.1c-1.6-3.6-3.6-6.7-6-9.2s-5-4.5-7.8-6c-2.8-1.5-5.7-2.5-8.6-3.2c-3-0.6-5.9-0.9-8.7-0.9
			c-6.2,0-11.6,1.3-16.3,3.8c-4.7,2.6-8.7,6-11.9,10.2c-3.2,4.2-5.6,9-7.2,14.2s-2.4,10.5-2.4,15.7c0,5.9,0.9,11.6,2.8,16.9
			c1.9,5.4,4.5,10.1,8,14.2c3.4,4.1,7.5,7.4,12.1,9.8c4.7,2.5,9.8,3.7,15.4,3.7c2.8,0,5.8-0.4,9-1.1c3.1-0.7,6.1-1.9,8.9-3.6
			c2.8-1.7,5.4-3.7,7.8-6.2s4.4-5.5,6-9.1l15.9,9.1C282.2,282.7,279.5,286.7,276,290.2z"/>
	</g>
</g>
</svg>
