<?xml version="1.0" encoding="utf-8"?>
<!-- Generator: Adobe Illustrator 25.0.1, SVG Export Plug-In . SVG Version: 6.00 Build 0)  -->
<svg version="1.1" id="Layer_1" xmlns="http://www.w3.org/2000/svg" xmlns:xlink="http://www.w3.org/1999/xlink" x="0px" y="0px"
	 viewBox="0 0 534.5 515.7" style="enable-background:new 0 0 534.5 515.7;" xml:space="preserve">
<style type="text/css">
	.st0{fill:#22314E;}
</style>
<g id="Layer_4">
</g>
<g id="Layer_1_1_">
	<g>
		<g>
			<path class="st0" d="M193,97.9c-3,0-5.5-2.5-5.5-5.5v-40c0-3,2.5-5.5,5.5-5.5s5.5,2.5,5.5,5.5v40C198.5,95.5,196.1,97.9,193,97.9
				z"/>
		</g>
		<g>
			<path class="st0" d="M341.4,97.9c-3,0-5.5-2.5-5.5-5.5v-40c0-3,2.5-5.5,5.5-5.5s5.5,2.5,5.5,5.5v40
				C346.9,95.5,344.5,97.9,341.4,97.9z"/>
		</g>
		<g>
			<path class="st0" d="M242.4,97.9c-3,0-5.5-2.5-5.5-5.5V18.5c0-3,2.5-5.5,5.5-5.5s5.5,2.5,5.5,5.5v73.9
				C247.9,95.5,245.5,97.9,242.4,97.9z"/>
		</g>
		<g>
			<path class="st0" d="M292,97.9c-3,0-5.5-2.5-5.5-5.5v-40c0-3,2.5-5.5,5.5-5.5s5.5,2.5,5.5,5.5v40C297.5,95.5,295.1,97.9,292,97.9
				z"/>
		</g>
	</g>
	<g>
		<g>
			<path class="st0" d="M193,404.9c-3,0-5.5-2.5-5.5-5.5v-40c0-3,2.5-5.5,5.5-5.5s5.5,2.5,5.5,5.5v40
				C198.5,402.5,196.1,404.9,193,404.9z"/>
		</g>
		<g>
			<path class="st0" d="M341.4,404.9c-3,0-5.5-2.5-5.5-5.5v-40c0-3,2.5-5.5,5.5-5.5s5.5,2.5,5.5,5.5v40
				C346.9,402.5,344.5,404.9,341.4,404.9z"/>
		</g>
		<g>
			<path class="st0" d="M242.4,404.9c-3,0-5.5-2.5-5.5-5.5v-40c0-3,2.5-5.5,5.5-5.5s5.5,2.5,5.5,5.5v40
				C247.9,402.5,245.5,404.9,242.4,404.9z"/>
		</g>
		<g>
			<path class="st0" d="M292,444c-3,0-5.5-2.5-5.5-5.5v-79.1c0-3,2.5-5.5,5.5-5.5s5.5,2.5,5.5,5.5v79.1
				C297.5,441.6,295.1,444,292,444z"/>
		</g>
	</g>
	<g>
		<g>
			<path class="st0" d="M443.3,159.8h-40c-3,0-5.5-2.5-5.5-5.5s2.5-5.5,5.5-5.5h40c3,0,5.5,2.5,5.5,5.5S446.4,159.8,443.3,159.8z"/>
		</g>
		<g>
			<path class="st0" d="M443.3,308.3h-40c-3,0-5.5-2.5-5.5-5.5s2.5-5.5,5.5-5.5h40c3,0,5.5,2.5,5.5,5.5S446.4,308.3,443.3,308.3z"/>
		</g>
		<g>
			<path class="st0" d="M477.2,209.3h-73.9c-3,0-5.5-2.5-5.5-5.5s2.5-5.5,5.5-5.5h73.9c3,0,5.5,2.5,5.5,5.5S480.3,209.3,477.2,209.3
				z"/>
		</g>
		<g>
			<path class="st0" d="M443.3,258.8h-40c-3,0-5.5-2.5-5.5-5.5c0-3,2.5-5.5,5.5-5.5h40c3,0,5.5,2.5,5.5,5.5
				C448.8,256.4,446.4,258.8,443.3,258.8z"/>
		</g>
	</g>
	<g>
		<g>
			<path class="st0" d="M136.3,159.7h-40c-3,0-5.5-2.5-5.5-5.5s2.5-5.5,5.5-5.5h40c3,0,5.5,2.5,5.5,5.5S139.4,159.7,136.3,159.7z"/>
		</g>
		<g>
			<path class="st0" d="M136.3,308.2h-40c-3,0-5.5-2.5-5.5-5.5s2.5-5.5,5.5-5.5h40c3,0,5.5,2.5,5.5,5.5S139.4,308.2,136.3,308.2z"/>
		</g>
		<g>
			<path class="st0" d="M136.3,209.2h-40c-3,0-5.5-2.5-5.5-5.5s2.5-5.5,5.5-5.5h40c3,0,5.5,2.5,5.5,5.5S139.4,209.2,136.3,209.2z"/>
		</g>
		<g>
			<path class="st0" d="M136.3,258.7H57.2c-3,0-5.5-2.5-5.5-5.5c0-3,2.5-5.5,5.5-5.5h79.1c3,0,5.5,2.5,5.5,5.5
				C141.8,256.3,139.4,258.7,136.3,258.7z"/>
		</g>
	</g>
</g>
<g id="Layer_2_1_">
</g>
<g id="Layer_3">
	<g>
		<path class="st0" d="M346.6,106.5H187.8c-22.1,0-40.1,18-40.1,40.1v158.8c0,22.1,18,40.1,40.1,40.1h158.8
			c22.1,0,40.1-18,40.1-40.1V146.6C386.7,124.5,368.7,106.5,346.6,106.5z M311.7,271.4c-3.5,3.5-7.4,6.4-11.7,8.8
			c-4.3,2.4-9,4.2-13.9,5.5s-9.7,1.9-14.5,1.9c-8.4,0-16.1-1.8-23.1-5.5c-7-3.6-13-8.4-18-14.3c-5.1-5.9-9-12.5-11.8-20
			s-4.2-15.1-4.2-22.8c0-7.3,1.3-14.6,3.9-21.8c2.6-7.2,6.4-13.7,11.4-19.5c5-5.8,11-10.4,18.2-13.9s15.3-5.3,24.5-5.3
			c10.8,0,20.1,2.5,28,7.4c7.8,4.9,13.7,11.3,17.5,19.2l-15,10.1c-1.6-3.6-3.6-6.7-6-9.2s-5-4.5-7.8-6s-5.7-2.5-8.6-3.2
			c-3-0.6-5.9-0.9-8.7-0.9c-6.2,0-11.6,1.3-16.3,3.8c-4.7,2.6-8.7,6-11.9,10.2c-3.2,4.2-5.6,9-7.2,14.2s-2.4,10.5-2.4,15.7
			c0,5.9,0.9,11.6,2.8,16.9c1.9,5.4,4.5,10.1,8,14.2c3.4,4.1,7.5,7.4,12.1,9.8c4.7,2.5,9.8,3.7,15.4,3.7c2.8,0,5.8-0.4,9-1.1
			c3.1-0.7,6.1-1.9,8.9-3.6s5.4-3.7,7.8-6.2s4.4-5.5,6-9.1l15.9,9.1C317.9,263.9,315.2,267.9,311.7,271.4z"/>
	</g>
</g>
</svg>
