<?xml version="1.0" encoding="utf-8"?>
<!-- Generator: Adobe Illustrator 25.0.1, SVG Export Plug-In . SVG Version: 6.00 Build 0)  -->
<svg version="1.1" id="Layer_1" xmlns="http://www.w3.org/2000/svg" xmlns:xlink="http://www.w3.org/1999/xlink" x="0px" y="0px"
	 viewBox="0 0 407.3 346" style="enable-background:new 0 0 407.3 346;" xml:space="preserve">
<style type="text/css">
	.st0{fill:#3C648E;}
</style>
<g>
	<path class="st0" d="M85.9,149c-31.2,0-56.5,25.3-56.5,56.5v71.6c0,8.2,6.7,14.9,14.9,14.9h83.1c8.2,0,14.9-6.7,14.9-14.9v-71.6
		C142.4,174.4,117,149,85.9,149z M135.4,277.1c0,4.4-3.6,7.9-7.9,7.9H44.3c-4.4,0-7.9-3.6-7.9-7.9v-71.6c0-27.3,22.2-49.5,49.5-49.5
		s49.5,22.2,49.5,49.5V277.1z"/>
	<path class="st0" d="M85.9,141c24.3,0,44-19.7,44-44s-19.7-44-44-44s-44,19.7-44,44S61.6,141,85.9,141z M85.9,60
		c20.4,0,37,16.6,37,37s-16.6,37-37,37s-37-16.6-37-37S65.5,60,85.9,60z"/>
	<path class="st0" d="M203.9,141c7,0,13.6-1.7,19.5-4.6c7.2,14.6,22.2,24.6,39.5,24.6s32.3-10,39.5-24.6c5.9,2.9,12.5,4.6,19.5,4.6
		c24.3,0,44-19.7,44-44s-19.7-44-44-44c-17.3,0-32.3,10-39.5,24.6c-5.9-2.9-12.5-4.6-19.5-4.6s-13.6,1.7-19.5,4.6
		C236.1,63.1,221.2,53,203.9,53c-24.3,0-44,19.7-44,44S179.6,141,203.9,141z M321.9,60c20.4,0,37,16.6,37,37s-16.6,37-37,37
		c-6.1,0-11.9-1.5-16.9-4.1c1.3-4.1,1.9-8.4,1.9-12.9c0-14.7-7.3-27.8-18.5-35.8C294.3,68.7,307.1,60,321.9,60z M203.9,60
		c14.8,0,27.5,8.7,33.5,21.2c-11.2,8-18.5,21-18.5,35.8c0,4.5,0.7,8.8,1.9,12.9c-5.1,2.6-10.8,4.1-16.9,4.1c-20.4,0-37-16.6-37-37
		S183.5,60,203.9,60z"/>
	<path class="st0" d="M321.9,149c-18.1,0-34.2,8.6-44.6,21.9c-4.6-1.2-9.4-1.9-14.4-1.9s-9.8,0.7-14.4,1.9
		C238.1,157.6,222,149,203.9,149c-31.2,0-56.5,25.3-56.5,56.5v71.6c0,8.2,6.7,14.9,14.9,14.9h44.1v5c0,8.3,6.7,15,15,15h83
		c8.3,0,15-6.7,15-15v-5h44.1c8.2,0,14.9-6.7,14.9-14.9v-71.6C378.4,174.4,353,149,321.9,149z M162.3,285c-4.4,0-7.9-3.6-7.9-7.9
		v-71.6c0-27.3,22.2-49.5,49.5-49.5c15,0,28.4,6.7,37.5,17.3c-20.5,8.5-35,28.7-35,52.2V285H162.3z M371.4,277.1
		c0,4.4-3.6,7.9-7.9,7.9h-44.1v-59.5c0-23.5-14.5-43.8-35-52.2c9.1-10.6,22.5-17.3,37.5-17.3c27.3,0,49.5,22.2,49.5,49.5V277.1z"/>
</g>
<g id="Layer_1_1_">
</g>
<g id="Layer_2_1_">
</g>
<g id="Layer_3">
</g>
</svg>
