<?xml version="1.0" encoding="utf-8"?>
<!-- Generator: Adobe Illustrator 25.0.1, SVG Export Plug-In . SVG Version: 6.00 Build 0)  -->
<svg version="1.1" id="Layer_1" xmlns="http://www.w3.org/2000/svg" xmlns:xlink="http://www.w3.org/1999/xlink" x="0px" y="0px"
	 viewBox="0 0 34.3 34.3" style="enable-background:new 0 0 34.3 34.3;" xml:space="preserve">
<style type="text/css">
	.st0{fill:#3C648E;}
	.st1{fill:#FFFFFF;}
</style>
<path class="st0" d="M17.1,0L17.1,0C7.7,0,0,7.7,0,17.1l0,0c0,9.4,7.7,17.1,17.1,17.1l0,0c9.4,0,17.1-7.7,17.1-17.1l0,0
	C34.2,7.7,26.6,0,17.1,0z"/>
<g id="Layer_2_1_">
	<rect x="10.1" y="13.1" class="st1" width="3" height="11"/>
	<ellipse class="st1" cx="11.6" cy="10.1" rx="1.8" ry="1.8"/>
	<path class="st1" d="M25.1,24.1h-3v-5.6c0-3.4-4-3.1-4,0v5.6h-3v-11h3v1.8c1.4-2.6,7-2.8,7,2.5V24.1z"/>
</g>
</svg>
