<?xml version="1.0" encoding="utf-8"?>
<!-- Generator: Adobe Illustrator 25.0.1, SVG Export Plug-In . SVG Version: 6.00 Build 0)  -->
<svg version="1.1" id="Layer_1" xmlns="http://www.w3.org/2000/svg" xmlns:xlink="http://www.w3.org/1999/xlink" x="0px" y="0px"
	 viewBox="0 0 612 496" style="enable-background:new 0 0 612 496;" xml:space="preserve">
<style type="text/css">
	.st0{fill:#D8D1CE;}
	.st1{fill:#8E2020;}
	.st2{fill:none;stroke:#3A3735;stroke-width:5;stroke-linecap:round;stroke-miterlimit:10;}
	.st3{fill:none;stroke:#3C648E;stroke-width:3;stroke-linecap:round;stroke-miterlimit:10;}
	.st4{fill:#CCC3C0;}
	.st5{fill:#E4E0DE;}
	.st6{fill:#E8E5E3;}
	.st7{fill:none;stroke:#3C648E;stroke-width:4;stroke-linecap:round;stroke-miterlimit:10;}
	.st8{fill:#D1CAC7;}
	.st9{fill:#C4BEBC;}
	.st10{fill:#DBD8D7;}
	.st11{fill:none;stroke:#3A3735;stroke-width:7;stroke-linecap:round;stroke-miterlimit:10;}
	.st12{fill:#EAE9E8;}
</style>
<g id="Layer_2_1_">
	<g>
		<path class="st0" d="M516,221v-20c0-1.1,0.9-2,2-2h34c1.1,0,2-0.9,2-2v-11c0-1.1-0.9-2-2-2h-21c-1.1,0-2-0.9-2-2V71.3
			c0-0.2,0-0.4,0.1-0.6l11.2-38.2c0.4-1.3-0.6-2.6-1.9-2.6h-5.8c-1.3,0-2.2-1.1-2-2.4l3-15.2c0.2-1.2-0.7-2.4-2-2.4h-42.2
			c-1.3,0-2.2,1.1-2,2.4l3,15.2c0.2,1.2-0.7,2.4-2,2.4h-5.8c-1.3,0-2.3,1.3-1.9,2.6l11.2,38.2c0.1,0.2,0.1,0.4,0.1,0.6V182
			c0,1.1-0.9,2-2,2h-23c-1.1,0-2,0.9-2,2v11c0,1.1,0.9,2,2,2h34c1.1,0,2,0.9,2,2v20c0,1.1-0.9,2-2,2h-56.5c-1.1,0-2,0.9-2,2l0,0v2
			v18v3v1H486v-1v-3v-16c0-1.1,0.9-2,2-2h41c1.1,0,2,0.9,2,2v16v3v1h45.5v-1v-3v-18v-2l0,0c0-1.1-0.9-2-2-2H518
			C516.9,223,516,222.1,516,221z M480,245h-31.5c-1.1,0-2-0.9-2-2v-14c0-1.1,0.9-2,2-2H480c1.1,0,2,0.9,2,2v14
			C482,244.1,481.1,245,480,245z M570.5,245H537c-1.1,0-2-0.9-2-2v-14c0-1.1,0.9-2,2-2h33.5c1.1,0,2,0.9,2,2v14
			C572.5,244.1,571.6,245,570.5,245z"/>
		<path class="st0" d="M533,272h41.5c1.1,0,2-0.9,2-2l0,0c0-1.1-0.9-2-2-2H533c-1.1,0-2,0.9-2,2l0,0C531,271.1,531.9,272,533,272z"
			/>
		<path class="st0" d="M444.5,272H484c1.1,0,2-0.9,2-2l0,0c0-1.1-0.9-2-2-2h-39.5c-1.1,0-2,0.9-2,2l0,0
			C442.5,271.1,443.4,272,444.5,272z"/>
	</g>
</g>
<g id="Layer_3">
	<path class="st1" d="M484,251.5v-2c0-0.8-0.7-1.5-1.5-1.5h-37c-0.8,0-1.5,0.7-1.5,1.5v2c0,0.8,0.7,1.5,1.5,1.5h4
		c0.8,0,1.5,0.7,1.5,1.5l0,0c0,0.8-0.7,1.5-1.5,1.5h-4c-0.8,0-1.5,0.7-1.5,1.5v9c0,0.8,0.7,1.5,1.5,1.5h37c0.8,0,1.5-0.7,1.5-1.5v-9
		c0-0.8-0.7-1.5-1.5-1.5h-4c-0.8,0-1.5-0.7-1.5-1.5l0,0c0-0.8,0.7-1.5,1.5-1.5h4C483.3,253,484,252.3,484,251.5z"/>
	<path class="st1" d="M574,251.5v-2c0-0.8-0.7-1.5-1.5-1.5h-37c-0.8,0-1.5,0.7-1.5,1.5v2c0,0.8,0.7,1.5,1.5,1.5h4
		c0.8,0,1.5,0.7,1.5,1.5l0,0c0,0.8-0.7,1.5-1.5,1.5h-4c-0.8,0-1.5,0.7-1.5,1.5v9c0,0.8,0.7,1.5,1.5,1.5h37c0.8,0,1.5-0.7,1.5-1.5v-9
		c0-0.8-0.7-1.5-1.5-1.5h-4c-0.8,0-1.5-0.7-1.5-1.5l0,0c0-0.8,0.7-1.5,1.5-1.5h4C573.3,253,574,252.3,574,251.5z"/>
</g>
<g id="Layer_12">
	<path class="st2" d="M203.6,162.9c2.4,2.8,5.1,5.3,7.9,7.5c19.1,14.6-0.1,37.6-23,28.9"/>
	<path class="st3" d="M196.8,170.3c1.1,1.2,19.8-6.8,21-5.7c1.2,1.2-11.9,10.5-10.6,11.5c1.5,1.1,17.7-4.7,18.7-3.5
		c1.2,1.4-14.6,7.4-14,8.9c0.7,1.6,14.6,2.5,14.7,4.1c0.1,1.7-14.4,0.3-14.9,2c-0.5,1.6,7.9,12.8,6.9,14.2s-12.2-12.4-13.6-11.3
		c-1.3,1,3.3,19,1.5,19c-1.6,0-9.1-13.4-10.9-13.7c-1.6-0.3-2.6,14.3-4.3,13.7"/>
</g>
<g id="Layer_4">
	<path class="st4" d="M134.9,227.4l57.3-7.5c4.4-0.6,7.6-4.7,7-9.1l-5.3-40.4c-0.6-4.4-4.7-7.6-9.1-7l-57.3,7.5
		c-4.4,0.6-7.6,4.7-7,9.1l5.3,40.4C126.4,224.9,130.4,228,134.9,227.4z"/>
	<rect x="173.6" y="112" transform="matrix(0.9915 -0.1304 0.1304 0.9915 -14.9074 37.3314)" class="st5" width="208" height="41"/>
	<path class="st0" d="M193.2,103.8l-121,15.9c-2.2,0.3-4.2-1.3-4.5-3.4l0,0c-0.3-2.2-2.3-3.7-4.5-3.4l-25.8,3.4
		c-2.2,0.3-3.7,2.3-3.4,4.5l0,0c0.3,2.2-1.3,4.2-3.4,4.5l-6.9,0.9c-2.2,0.3-3.7,2.3-3.4,4.5l9.1,69.4c0.3,2.2,2.3,3.7,4.5,3.4
		l6.9-0.9c2.2-0.3,4.2,1.3,4.5,3.4l0,0c0.3,2.2,2.3,3.7,4.5,3.4l25.8-3.4c2.2-0.3,3.7-2.3,3.4-4.5l0,0c-0.3-2.2,1.3-4.2,3.4-4.5
		l121-15.9c2.2-0.3,3.7-2.3,3.4-4.5l-9.1-69.4C197.4,105,195.3,103.5,193.2,103.8z"/>
	<path class="st6" d="M504.7,48.7c-9.2,0.8-17.6,4.1-24.6,9.1c-20.1,14.4-43.8,23.1-68.3,26.3l-31.6,4.2c-5.7,0.8-9.8,6-9,11.8
		l5.2,39.7c0.8,5.7,6,9.8,11.8,9l46.8-6.2c20.6-2.7,41.5-0.9,61.7,4.4c6,1.6,12.5,2,19.1,1.2c27.4-3.6,46.7-28.8,43-56.2
		C555.2,65.5,531.2,46.3,504.7,48.7z"/>
	<circle class="st0" cx="509.7" cy="98.9" r="31.5"/>
	<path class="st2" d="M417.9,114c39.9-14.8,51.5,58.4,100.7,52.9"/>
	<path class="st7" d="M414.8,105.6c3.2-1.2,9.4,12.9,12.3,12.8c3.2-0.2,8.9-14.6,11.8-13.7c2.9,0.9-2.1,18.4,0.6,20.2
		c2.5,1.6,15.9-10.5,18.3-8.4c2.2,2-8.3,17-6.1,19.3c2.1,2.2,17.4-7.6,19.5-5.3c2,2.3-9.2,16.7-7.1,19c2.1,2.3,17.1-8.1,19.3-6
		c2.2,2.2-7.2,17.8-4.8,19.7c2.5,1.9,15-11.3,17.6-9.8c2.7,1.5-1.5,18.1,1.5,19.1c2.9,0.9,9.3-13,12.4-12.7
		c2.9,0.3,6.2,16.3,9.5,15.9"/>
	<path class="st0" d="M402,128.7l23.3-3.1c1.5-0.2,2.6-1.6,2.4-3.1l-2.5-19.3c-0.2-1.5-1.6-2.6-3.1-2.4l-23.3,3.1
		c-1.5,0.2-2.6,1.6-2.4,3.1l2.5,19.3C399.1,127.9,400.4,128.9,402,128.7z"/>
</g>
<g id="Layer_6">
	<g id="Layer_7">
		<path class="st8" d="M209.8,351C146,351,65,387.2,57,398.2C43,417.5,36,496,36,496h254c0,0-3.5-45.9-4-61.3
			C284.5,388.5,272,351,209.8,351z"/>
		<path class="st8" d="M209.8,351C146,351,65,387.2,57,398.2C43,417.5,36,496,36,496h254c0,0-3.5-45.9-4-61.3
			C284.5,388.5,272,351,209.8,351z"/>
	</g>
	<circle class="st9" cx="210" cy="405" r="57"/>
	
		<rect x="142.7" y="419.9" transform="matrix(0.9354 -0.3535 0.3535 0.9354 -139.9843 84.6341)" class="st5" width="38" height="11.2"/>
	<path class="st6" d="M165.6,454.3L145,399.7c-0.7-1.7-2.6-2.6-4.3-1.9L73,423.4c-1.7,0.7-2.6,2.6-1.9,4.3l5.2,13.6
		c0.7,1.7-0.2,3.7-1.9,4.3l-1.3,0.5c-1.7,0.7-2.6,2.6-1.9,4.3l5.9,15.7c0.7,1.7,2.6,2.6,4.3,1.9l1.3-0.5c1.7-0.7,3.7,0.2,4.3,1.9
		l4.8,12.7c0.7,1.7,2.6,2.6,4.3,1.9l67.7-25.6C165.4,457.9,166.2,456,165.6,454.3z"/>
</g>
<g id="Layer_14">
	<circle class="st0" cx="160.5" cy="405" r="3.5"/>
	<circle class="st0" cx="259.5" cy="405" r="3.5"/>
	<circle class="st0" cx="210" cy="454.5" r="3.5"/>
	<circle class="st0" cx="210" cy="355.5" r="3.5"/>
	<circle class="st0" cx="175" cy="440" r="3.5"/>
	<circle class="st0" cx="245" cy="370" r="3.5"/>
	<circle class="st0" cx="245" cy="440" r="3.5"/>
	<circle class="st0" cx="175" cy="370" r="3.5"/>
	<circle class="st0" cx="255.7" cy="385.9" r="3.5"/>
	<circle class="st0" cx="229.1" cy="450.7" r="3.5"/>
	<circle class="st0" cx="190.9" cy="359.3" r="3.5"/>
	<circle class="st0" cx="191.2" cy="450.8" r="3.5"/>
	<circle class="st0" cx="228.8" cy="359.2" r="3.5"/>
	<circle class="st0" cx="255.8" cy="423.8" r="3.5"/>
	<circle class="st0" cx="164.2" cy="386.2" r="3.5"/>
</g>
<g id="Layer_8">
	<path class="st8" d="M116.6,432.3L116.6,432.3c5.4-2.1,11.5,0.7,13.5,6.1l14.8,39.1c2.1,5.4-0.7,11.5-6.1,13.5l0,0
		c-5.4,2.1-11.5-0.7-13.5-6.1l-14.8-39.1C108.5,440.5,111.2,434.4,116.6,432.3z"/>
	<circle class="st5" cx="259.9" cy="468.8" r="17"/>
	<circle class="st5" cx="124.4" cy="441.5" r="2.8"/>
	<circle class="st5" cx="127.9" cy="450.2" r="2.8"/>
	<circle class="st5" cx="116.5" cy="444" r="2.8"/>
	<circle class="st5" cx="119.7" cy="452.4" r="2.8"/>
</g>
<g id="Layer_5">
	<path class="st10" d="M251.1,403.4c0,14.7-11.7,41.6-38.4,41.6c-30.7,0-42.7-22-42.7-41c0-106.7-96-148.9-96-231.1
		c0-18.1,9.6-45.9,38.4-45.9c33.1,0,44.8,22.4,44.8,41.6C157.2,217.7,251.1,292.4,251.1,403.4z"/>
	<circle class="st0" cx="115.6" cy="167.6" r="29.9"/>
	<circle class="st0" cx="209.5" cy="404.4" r="29.9"/>
	<g>
		<circle class="st6" cx="91.1" cy="167.6" r="1.7"/>
		<circle class="st6" cx="140.2" cy="167.6" r="1.7"/>
		<circle class="st6" cx="115.6" cy="192.1" r="1.7"/>
		<circle class="st6" cx="115.6" cy="143" r="1.7"/>
		<circle class="st6" cx="98.3" cy="184.9" r="1.7"/>
		<circle class="st6" cx="133" cy="150.2" r="1.7"/>
		<circle class="st6" cx="133" cy="184.9" r="1.7"/>
		<circle class="st6" cx="98.3" cy="150.2" r="1.7"/>
		<circle class="st6" cx="138.3" cy="158.1" r="1.7"/>
		<circle class="st6" cx="125.1" cy="190.2" r="1.7"/>
		<circle class="st6" cx="106.1" cy="144.9" r="1.7"/>
		<circle class="st6" cx="106.3" cy="190.3" r="1.7"/>
		<circle class="st6" cx="124.9" cy="144.8" r="1.7"/>
		<circle class="st6" cx="138.3" cy="176.9" r="1.7"/>
		<circle class="st6" cx="92.9" cy="158.2" r="1.7"/>
		<circle class="st6" cx="92.8" cy="176.9" r="1.7"/>
	</g>
	<g>
		<circle class="st6" cx="185" cy="404.4" r="1.7"/>
		<circle class="st6" cx="234.1" cy="404.4" r="1.7"/>
		<circle class="st6" cx="209.5" cy="429" r="1.7"/>
		<circle class="st6" cx="209.5" cy="379.9" r="1.7"/>
		<circle class="st6" cx="192.2" cy="421.8" r="1.7"/>
		<circle class="st6" cx="226.9" cy="387.1" r="1.7"/>
		<circle class="st6" cx="226.9" cy="421.8" r="1.7"/>
		<circle class="st6" cx="192.2" cy="387.1" r="1.7"/>
		<circle class="st6" cx="232.2" cy="395" r="1.7"/>
		<circle class="st6" cx="219" cy="427.1" r="1.7"/>
		<circle class="st6" cx="200" cy="381.8" r="1.7"/>
		<circle class="st6" cx="200.2" cy="427.2" r="1.7"/>
		<circle class="st6" cx="218.8" cy="381.7" r="1.7"/>
		<circle class="st6" cx="232.2" cy="413.8" r="1.7"/>
		<circle class="st6" cx="186.8" cy="395.1" r="1.7"/>
		<circle class="st6" cx="186.7" cy="413.8" r="1.7"/>
	</g>
</g>
<g id="Layer_9">
	<path class="st11" d="M259.9,470.3C275,437,203,399,198,348"/>
</g>
<g id="Layer_11">
	<g>
		<path class="st7" d="M256.5,468.5c1.4-3,16.4-4.1,16.5-7.2c0.1-3-22-3-23-6.2c-0.9-2.8,18-14.3,16.4-17.2
			c-1.4-2.6-21.8,6.2-23.7,3.5c-1.7-2.5,14.1-18,12.1-20.6c-1.9-2.4-21,8.9-23.1,6.4c-2-2.4,12.9-18.9,10.9-21.3s-21,9.2-23,6.8
			c-2-2.4,13.2-18.6,11.3-21.1c-1.9-2.5-21.5,8.2-23.3,5.6s14.6-17.4,13-20.1c-1.7-2.7-22.3,5.6-23.8,2.8
			c-1.5-2.8,17.1-14.9,16-17.8c-1.2-2.9-23,0.9-23.8-2.1s20.3-9.9,19.9-13.1"/>
		<path class="st11" d="M124.5,214.5c-35.6-32.2-55.4-108.5,0-129c27-10,48,7,52,21"/>
		<g>
			<path class="st7" d="M118.5,221.2c-3.3-3,6.5-18.8,3.5-22.5c-2.9-3.5-20.2,3-22.7-1c-2.4-3.9,11.2-16.6,9.2-20.8
				s-20.4-1.9-21.8-6.4c-1.5-4.5,14.7-13.5,13.9-18c-0.9-4.6-19.3-7.3-19.4-11.9c-0.2-4.7,18-8.3,18.7-12.8
				c0.7-4.7-15.2-14.1-13.4-18.3c1.8-4.3,19.4,1,22.4-2.7c2.9-3.5-5.7-19.8-1.7-22.5c3.6-2.5,15.9,11.3,20.6,9.6
				c1.8-0.7-1.6-18.4,0.1-18.9c1.9-0.5,7,16.9,8.8,16.6c1.9-0.2,2.9-18.3,4.7-18.2c1.9,0,2.3,18.1,4.1,18.4
				c1.9,0.3,7.8-16.8,9.5-16.2c1.9,0.6-2.8,18-1.2,18.8c1.8,0.8,12.2-13.9,13.7-12.9c1.6,1.1-7.8,16.5-6.4,17.7
				c1.5,1.3,15.7-9.8,16.9-8.3c1.3,1.5-12.5,13.2-11.6,14.8c1,1.7,18.2-3.4,18.7-1.7"/>
		</g>
	</g>
</g>
<g id="Layer_13">
	<path class="st12" d="M204,348c-30.6,3.2-34.9,35.8-36.6,26.6c-13.5-76.4-76.9-117.8-90.8-178.2C75,188.9,96,219.6,124,213
		c34-8,34.9-30.9,37.7-23.5c16.5,42.8,73.1,101.2,86.5,180.1C250.1,380.5,233,345,204,348z"/>
</g>
<g id="Layer_15">
	<g>
		<circle class="st6" cx="484.1" cy="102.3" r="1.8"/>
		<circle class="st6" cx="535.4" cy="95.6" r="1.8"/>
		<circle class="st6" cx="513.1" cy="124.6" r="1.8"/>
		<circle class="st6" cx="506.4" cy="73.3" r="1.8"/>
		<circle class="st6" cx="494" cy="119.5" r="1.8"/>
		<circle class="st6" cx="525.5" cy="78.4" r="1.8"/>
		<circle class="st6" cx="530.3" cy="114.7" r="1.8"/>
		<circle class="st6" cx="489.2" cy="83.2" r="1.8"/>
		<circle class="st6" cx="532.1" cy="85.9" r="1.8"/>
		<circle class="st6" cx="522.8" cy="121.3" r="1.8"/>
		<circle class="st6" cx="496.7" cy="76.6" r="1.8"/>
		<circle class="st6" cx="503.1" cy="124" r="1.8"/>
		<circle class="st6" cx="516.3" cy="73.9" r="1.8"/>
		<circle class="st6" cx="534.8" cy="105.6" r="1.8"/>
		<circle class="st6" cx="484.7" cy="92.3" r="1.8"/>
		<circle class="st6" cx="487.2" cy="111.8" r="1.8"/>
	</g>
</g>
</svg>
