<?xml version="1.0" encoding="utf-8"?>
<!-- Generator: Adobe Illustrator 25.0.1, SVG Export Plug-In . SVG Version: 6.00 Build 0)  -->
<svg version="1.1" id="Layer_1" xmlns="http://www.w3.org/2000/svg" xmlns:xlink="http://www.w3.org/1999/xlink" x="0px" y="0px"
	 viewBox="0 0 465 134.5" style="enable-background:new 0 0 465 134.5;" xml:space="preserve">
<style type="text/css">
	.st0{fill:#ED2058;}
	.st1{fill:#FFFFFF;}
	.st2{fill:#0F1A2C;}
</style>
<g>
	<path class="st0" d="M110,62.8L110,62.8c-2.8-2.8-4.3-6.5-4.3-10.4V27.7c0-3.3-2.7-6-6-6h-70c-3.3,0-6,2.7-6,6v70c0,3.3,2.7,6,6,6
		h24.6c3.9,0,7.7,1.6,10.4,4.3l0,0c4.7,4.7,12.3,4.7,17,0L110,79.8C114.7,75.1,114.7,67.5,110,62.8z"/>
	<g>
		<path class="st1" d="M47.7,29.2c0-0.8-0.7-1.5-1.5-1.5H35.7h0c-3.3,0-6,2.7-6,6v0v10.5c0,0.8,0.7,1.5,1.5,1.5h3
			c0.8,0,1.5-0.7,1.5-1.5v-9c0-0.8,0.7-1.5,1.5-1.5h9c0.8,0,1.5-0.7,1.5-1.5V29.2z"/>
		<path class="st1" d="M54.7,37.7h-1.5h-7.5h-3c-1.7,0-3,1.3-3,3v3v7.5v1.5c0,1.7,1.3,3,3,3h1.5h7.5h3c1.7,0,3-1.3,3-3v-3v-7.5v-1.5
			C57.7,39.1,56.3,37.7,54.7,37.7z M50.2,49.7h-3c-0.8,0-1.5-0.7-1.5-1.5v-3c0-0.8,0.7-1.5,1.5-1.5h3c0.8,0,1.5,0.7,1.5,1.5v3
			C51.7,49.1,51,49.7,50.2,49.7z"/>
		<path class="st1" d="M54.7,69.7h-1.5h-7.5h-3c-1.7,0-3,1.3-3,3v3v7.5v1.5c0,1.7,1.3,3,3,3h1.5h7.5h3c1.7,0,3-1.3,3-3v-3v-7.5v-1.5
			C57.7,71.1,56.3,69.7,54.7,69.7z M50.2,81.7h-3c-0.8,0-1.5-0.7-1.5-1.5v-3c0-0.8,0.7-1.5,1.5-1.5h3c0.8,0,1.5,0.7,1.5,1.5v3
			C51.7,81.1,51,81.7,50.2,81.7z"/>
		<path class="st1" d="M86.7,37.7h-1.5h-7.5h-3c-1.7,0-3,1.3-3,3v3v7.5v1.5c0,1.7,1.3,3,3,3h1.5h7.5h3c1.7,0,3-1.3,3-3v-3v-7.5v-1.5
			C89.7,39.1,88.3,37.7,86.7,37.7z M82.2,49.7h-3c-0.8,0-1.5-0.7-1.5-1.5v-3c0-0.8,0.7-1.5,1.5-1.5h3c0.8,0,1.5,0.7,1.5,1.5v3
			C83.7,49.1,83,49.7,82.2,49.7z"/>
		<path class="st1" d="M98.2,45.7c0.8,0,1.5-0.7,1.5-1.5V33.7v0c0-3.3-2.7-6-6-6h0H83.2c-0.8,0-1.5,0.7-1.5,1.5v3
			c0,0.8,0.7,1.5,1.5,1.5h9c0.8,0,1.5,0.7,1.5,1.5v9c0,0.8,0.7,1.5,1.5,1.5H98.2z"/>
		<path class="st1" d="M31.2,79.7c-0.8,0-1.5,0.7-1.5,1.5v10.5v0c0,3.3,2.7,6,6,6h0h10.5c0.8,0,1.5-0.7,1.5-1.5v-3
			c0-0.8-0.7-1.5-1.5-1.5h-9c-0.8,0-1.5-0.7-1.5-1.5v-9c0-0.8-0.7-1.5-1.5-1.5H31.2z"/>
		<path class="st1" d="M44.2,65.7h-3c-0.8,0-1.5-0.7-1.5-1.5v-3c0-0.8,0.7-1.5,1.5-1.5h3c0.8,0,1.5,0.7,1.5,1.5v3
			C45.7,65.1,45,65.7,44.2,65.7z"/>
		<path class="st1" d="M68.2,75.7h-3c-0.8,0-1.5-0.7-1.5-1.5v-3c0-0.8,0.7-1.5,1.5-1.5h3c0.8,0,1.5,0.7,1.5,1.5v3
			C69.7,75.1,69,75.7,68.2,75.7z"/>
		<path class="st1" d="M62.2,65.7h-9c-0.8,0-1.5-0.7-1.5-1.5v-3c0-0.8,0.7-1.5,1.5-1.5h9c0.8,0,1.5,0.7,1.5,1.5v3
			C63.7,65.1,63,65.7,62.2,65.7z"/>
		<path class="st1" d="M74.2,65.7h-3c-0.8,0-1.5-0.7-1.5-1.5v-3c0-0.8,0.7-1.5,1.5-1.5h3c0.8,0,1.5,0.7,1.5,1.5v3
			C75.7,65.1,75,65.7,74.2,65.7z"/>
		<path class="st1" d="M61.7,54.2v-15c0-0.8,0.7-1.5,1.5-1.5h3c0.8,0,1.5,0.7,1.5,1.5v15c0,0.8-0.7,1.5-1.5,1.5h-3
			C62.4,55.7,61.7,55.1,61.7,54.2z"/>
		<g>
			<path class="st1" d="M87.4,76.9l-2.2,2.2c-0.5,0.5-0.6,1.3-0.2,1.9c2.9,3.9-0.8,7.6-0.8,7.6l-7.1,7.1c0,0-4.2,4.2-8.5,0
				c-4.2-4.2,0-8.5,0-8.5l1.8-1.8c0.6-0.6,0.6-1.5,0-2.1l-2.1-2.1c-0.6-0.6-1.5-0.6-2.1,0L64.4,83c0,0-8.5,8.5,0,17
				c8.5,8.5,17-0.1,17-0.1l7.1-7.1c0,0,7.7-7.7,1.1-15.8C89.1,76.3,88,76.3,87.4,76.9z"/>
			<path class="st1" d="M84.9,62.5l-7.1,7.1c0,0-7.7,7.7-1.1,15.8c0.6,0.7,1.6,0.7,2.2,0.1l2.2-2.2c0.5-0.5,0.6-1.3,0.2-1.9
				c-2.9-3.9,0.8-7.6,0.8-7.6l7.1-7.1c0,0,4.2-4.2,8.5,0c4.2,4.2,0,8.5,0,8.5L95.8,77c-0.6,0.6-0.6,1.5,0,2.1l2.1,2.1
				c0.6,0.6,1.5,0.6,2.1,0l1.8-1.8c0,0,8.5-8.5,0-17C93.4,54,84.9,62.5,84.9,62.5z"/>
		</g>
	</g>
</g>
<g>
	<path class="st2" d="M186.9,92.6c-2.1,1.3-4.4,2.3-6.9,3.1c-2.5,0.7-5.1,1.1-7.9,1.1c-4.3,0-8.1-0.8-11.6-2.5
		c-3.5-1.7-6.4-3.9-8.9-6.6c-2.5-2.7-4.4-5.9-5.8-9.4c-1.4-3.5-2-7.2-2-10.9c0-3.9,0.7-7.6,2.2-11.1c1.4-3.6,3.4-6.7,6-9.4
		c2.5-2.7,5.6-4.9,9.1-6.5c3.5-1.6,7.3-2.4,11.4-2.4c4.2,0,8,0.9,11.5,2.6c3.5,1.7,6.4,4,8.9,6.8c2.5,2.8,4.4,6,5.7,9.5
		c1.4,3.6,2,7.2,2,10.8c0,3.8-0.7,7.4-2,10.8c-1.3,3.4-3.2,6.5-5.6,9.2l7.9,8.9h-10.6L186.9,92.6z M172.3,86.8
		c1.5,0,2.9-0.2,4.1-0.5c1.3-0.4,2.5-0.8,3.6-1.4l-8.8-10h10.6l4,4.5c1.1-1.7,1.9-3.7,2.5-5.7c0.6-2.1,0.9-4.2,0.9-6.3
		c0-2.5-0.4-4.9-1.2-7.3c-0.8-2.3-1.9-4.4-3.4-6.2c-1.4-1.8-3.2-3.2-5.3-4.3c-2.1-1.1-4.5-1.6-7.1-1.6c-2.7,0-5.2,0.6-7.3,1.7
		c-2.1,1.1-3.9,2.6-5.3,4.5c-1.4,1.9-2.5,3.9-3.2,6.3c-0.7,2.3-1.1,4.7-1.1,7.1c0,2.5,0.4,4.9,1.1,7.3c0.8,2.3,1.9,4.4,3.3,6.2
		c1.4,1.8,3.2,3.3,5.3,4.3C167.2,86.2,169.6,86.8,172.3,86.8z"/>
	<path class="st2" d="M209.2,96.4V38.2h25.7c2.7,0,5.1,0.6,7.4,1.7c2.3,1.1,4.2,2.6,5.9,4.4c1.6,1.8,2.9,3.9,3.8,6.2
		c0.9,2.3,1.4,4.7,1.4,7c0,3.8-0.9,7.2-2.8,10.3c-1.9,3.1-4.4,5.3-7.7,6.7l13.3,21.9h-12.7l-11.9-19.5h-11.1v19.5H209.2z
		 M220.5,66.9h14.2c1,0,2-0.2,2.9-0.7c0.9-0.5,1.7-1.2,2.3-2c0.7-0.8,1.2-1.8,1.6-3c0.4-1.1,0.6-2.4,0.6-3.7c0-1.4-0.2-2.6-0.7-3.8
		c-0.4-1.1-1-2.1-1.8-3c-0.7-0.8-1.6-1.5-2.5-2c-1-0.5-1.9-0.7-2.9-0.7h-13.7V66.9z"/>
	<path class="st2" d="M283.3,96.4V38.2h11.3v48.2h29.7v9.9H283.3z"/>
	<path class="st2" d="M330.1,47.5V36.6h11v10.9H330.1z M330.1,96.4V53.4h11v42.9H330.1z"/>
	<path class="st2" d="M390.9,96.4h-11V72.3c0-3.4-0.6-6-1.8-7.5c-1.2-1.6-2.9-2.4-5-2.4c-1.1,0-2.2,0.2-3.4,0.7
		c-1.1,0.4-2.2,1.1-3.2,1.8c-1,0.8-1.9,1.7-2.7,2.8c-0.8,1.1-1.4,2.3-1.8,3.6v25.1h-11V53.4h9.9v7.9c1.6-2.7,3.9-4.9,6.9-6.4
		c3-1.5,6.4-2.3,10.2-2.3c2.7,0,4.9,0.5,6.6,1.5c1.7,1,3,2.3,3.9,3.8c0.9,1.6,1.6,3.4,1.9,5.4c0.4,2,0.5,4.1,0.5,6.1V96.4z"/>
	<path class="st2" d="M429.8,96.4l-12.5-18.6l-5.9,5.8v12.8h-11V36.6h11v36.3l17.2-19.3h11.7l-16,18.2l17.1,24.7H429.8z"/>
</g>
</svg>
